<?xml version="1.0" encoding="utf-8"?>
<!-- Generator: Adobe Illustrator 27.5.0, SVG Export Plug-In . SVG Version: 6.00 Build 0)  -->
<svg version="1.1" xmlns="http://www.w3.org/2000/svg" xmlns:xlink="http://www.w3.org/1999/xlink" x="0px" y="0px"
	 viewBox="0 0 750 500" style="enable-background:new 0 0 750 500;" xml:space="preserve">
<g id="BACKGROUND">
	<rect style="fill:#AAE9E8;" width="750" height="500"/>
</g>
<g id="OBJECTS">
	<g>
		<g>
			<path style="fill:#0083F5;" d="M201.526,209.972c3.112-1.311,31,1.75,31,1.75c4.433,1.381,10.593,164.469,14,202.667
				c0,0-40.5,1.5-69,0C176.997,413.269,189.539,284.641,201.526,209.972z"/>
			<path style="fill:#32A4F9;" d="M185.526,217.555c3.112-1.311,31-5.833,31-5.833c4.433,1.381,10.676,164.886,14.083,203.083
				c0,0-40.583,1.083-69.083-0.417C160.997,413.269,173.539,292.225,185.526,217.555z"/>
			<path style="fill:none;stroke:#004BC4;stroke-width:0.75;stroke-linecap:round;stroke-linejoin:round;stroke-miterlimit:10;" d="
				M184.471,319.222c-2.471,23.837-5.795,50.075-8.266,73.912c-0.705,6.806-0.679,16.671-1.179,21.421"/>
			<path style="fill:none;stroke:#004BC4;stroke-width:0.75;stroke-linecap:round;stroke-linejoin:round;stroke-miterlimit:10;" d="
				M162.526,408.5c12.04,0.227,24.08,0.454,36.12,0.682c10.305,0.194,20.615,0.389,30.915,0.029"/>
			<path style="fill:none;stroke:#004BC4;stroke-width:0.75;stroke-linecap:round;stroke-linejoin:round;stroke-miterlimit:10;" d="
				M177.231,414.732c3.451-30.839,6.455-64.505,9.906-95.344"/>
		</g>
		<g>
			<path style="fill:#32A4F9;" d="M308.804,145.93c4.194,0.209,9.161,0.925,12.954,2.727c3.793,1.802,7.037,5.289,7.444,9.469
				c0.078,0.803,0.049,1.629-0.217,2.39c-0.387,1.105-1.244,3.167-2.178,3.873c-1.197,0.905-2.561,1.587-4.003,2.002
				c-1.513,0.435-3.095,0.574-4.668,0.647c-3.778,0.174-7.592,0.585-11.331,0.018C307.652,160.383,307.956,152.602,308.804,145.93z"
				/>
			<path style="fill:#FFFFFF;" d="M209.345,134.674c31.49,11.322,72.643,5.982,99.527,9.641l-2.289,23.99
				c-33.209,2.141-68.736-1.456-101.932-3.792C206.592,154.639,209.327,144.737,209.345,134.674z"/>
			<path style="fill:none;stroke:#00B4CA;stroke-linecap:round;stroke-linejoin:round;stroke-miterlimit:10;" d="M264.59,154.924
				c2.839-1.934,5.679-3.867,8.518-5.801"/>
			<path style="fill:none;stroke:#00B4CA;stroke-linecap:round;stroke-linejoin:round;stroke-miterlimit:10;" d="M260.312,153.91
				c2.032-0.8,3.931-1.935,5.598-3.345"/>
		</g>
		<path style="fill:#FF9988;" d="M192.026,134.387c0.329-6.082,1.238-20.582,0.31-25.665c0.404,0,18.664,0.583,18.664,0.583
			c-1.083,10.846,0.227,23,2.252,33.084"/>
		<path style="fill:#FFFFFF;" d="M192.253,132.788c5.188-3.382,12.969-2.05,17.989,1.515c5.021,3.565,22.283,17.002,25.283,28.252
			c1.08,4.051-0.735,13.867-1.5,18c-2.145,11.59-3.721,19.512-3.75,31.25c0,0,0.917,86.75,0.917,108.75l-72.167-3
			c-6.921,0,20.026-105.826,19.592-105.833c1.662-14.457-1.436-20.281-0.586-34.791C178.883,162.421,178.828,141.54,192.253,132.788
			z"/>
		<g>
			<path style="fill:#FFAF9D;" d="M189.926,108.034c0.208,5.209,1.492,10.354,5.141,13.852c2.953,2.831,11.127,5.721,15.072,6.689
				c6.607,1.62,10.029-2.383,12.151-8.734c1.729-5.176,1.588-12.183,1.325-17.572c-0.418-8.585-5.1-14.246-13.503-16.463
				c-7.301-1.926-14.996-0.157-18.148,7.327C190.063,97.648,189.732,103.179,189.926,108.034z"/>
			<path style="fill:#FFAF9D;" d="M223.13,103.297c0.233,3.056,1.433,5.562,3.324,7.973c0.497,0.634,1.076,1.454,0.7,2.167
				c-0.235,0.446-0.759,0.64-1.238,0.798c-1.7,0.56-3.442,1.593-5.142,2.153"/>
		</g>
		<g>
			<path style="fill:#321973;" d="M221.191,107.34c-0.02,0.38-0.344,0.673-0.724,0.653s-0.673-0.344-0.653-0.724
				c0.02-0.38,0.344-0.673,0.724-0.653C220.918,106.636,221.21,106.96,221.191,107.34z"/>
			
				<path style="fill:none;stroke:#321973;stroke-width:0.7247;stroke-linecap:round;stroke-linejoin:round;stroke-miterlimit:10;" d="
				M217.597,105.043c1.122-1.299,3.379-1.371,4.581-0.145"/>
		</g>
		
			<path style="fill:none;stroke:#E55C51;stroke-width:0.7247;stroke-linecap:round;stroke-linejoin:round;stroke-miterlimit:10;" d="
			M196.378,104.902c0.616-0.775,1.605-1.239,2.595-1.216c0.99,0.023,1.957,0.532,2.536,1.336"/>
		<g>
			<path style="fill:#321973;" d="M179.393,75.421c-4.032,1.207-7.993,3.708-10.004,7.511c-2.437,4.607-2.73,9.546-5.868,13.916
				c-3.083,4.293-7,8.095-9.088,13.031c-1.871,4.424-2.519,9.577-0.691,14.019c2.458,5.971,9.392,9.391,15.661,9.12
				c5.596-0.242,11.336-3.473,14.163-8.35c2.175-3.753,2.571-8.327,1.949-12.62c-0.869-5.994-3.864-11.376-4.631-17.431
				c-0.132-1.044-0.223-2.114,0.014-3.14c0.907-3.929,6.802-8.705,10.718-9.125c3.924-0.421,6.092,0.909,8.718,3.855
				C197.086,78.232,187.644,72.951,179.393,75.421z"/>
			
				<path style="fill:none;stroke:#321973;stroke-width:0.7247;stroke-linecap:round;stroke-linejoin:round;stroke-miterlimit:10;" d="
				M164.72,95.82c2.269-5.199,2.908-12.25,6.291-16.949c3.219-4.471,9.147-6.578,14.542-5.784
				c7.908,1.165,13.536,8.375,14.862,15.941"/>
			
				<path style="fill:none;stroke:#321973;stroke-width:0.7247;stroke-linecap:round;stroke-linejoin:round;stroke-miterlimit:10;" d="
				M165.736,132.481c-3.208,0.219-6.223-1.517-8.742-3.516c-1.978-1.57-3.832-3.389-4.949-5.654
				c-2.077-4.215-1.255-9.401,1.001-13.523c2.257-4.122,5.772-7.388,9.272-10.524c3.499-3.136,7.096-6.281,9.591-10.263"/>
			
				<path style="fill:none;stroke:#321973;stroke-width:0.7247;stroke-linecap:round;stroke-linejoin:round;stroke-miterlimit:10;" d="
				M166.455,91.562c-2.5,3.716-5.909,6.708-9.121,9.83c-3.212,3.121-6.328,6.514-8.004,10.667
				c-1.676,4.154-1.663,9.243,1.069,12.792c1.16,1.506,2.733,2.653,4.412,3.543c4.853,2.572,10.769,3.055,15.974,1.304"/>
		</g>
		<g>
			<path style="fill:#FFAF9D;" d="M198.193,414.722c0.292,6.561,1.672,20.921,2.167,31.167c0.178,3.696,51.142,3.766,50.126,1.687
				c-2.117-4.331-5.774-7.825-10.386-9.703l-7.21-2.935c-4.906-1.997-8.718-6.004-10.469-11.003l-3.227-9.213"/>
			<path style="fill:#FFFFFF;" d="M198.363,419.964c0.315,10.194,0.496,23.362,1.288,29.841l52.593-0.023l-0.008-0.084
				c-0.746-7.332-5.48-13.654-12.307-16.433l-7.21-2.935c-4.906-1.997-9.755-7.151-12.13-11.651c0,0-1.4,6.935-9.483,7.519
				C203.874,426.72,198.363,419.964,198.363,419.964z"/>
			<path style="fill:#FFFFFF;" d="M252.747,454.747h-0.009c-0.242-2.379-0.525-6.567-1.025-8.692l-52.458-1.083
				c0.178,3.696,0.321,7.419,0.563,9.776H252.747"/>
			
				<line style="fill:none;stroke:#00B4CA;stroke-linecap:round;stroke-linejoin:round;stroke-miterlimit:10;" x1="199.526" y1="445.555" x2="250.859" y2="445.555"/>
			<path style="fill:none;stroke:#00B4CA;stroke-linecap:round;stroke-linejoin:round;stroke-miterlimit:10;" d="M237.275,445.051
				c-0.179-3.014,0.706-6.08,2.464-8.535c0.698-0.975,1.608-1.902,2.783-2.145"/>
			<path style="fill:none;stroke:#00B4CA;stroke-linecap:round;stroke-linejoin:round;stroke-miterlimit:10;" d="M231.831,435.7
				c1.131-1.513,2.523-2.831,4.096-3.877"/>
			<path style="fill:none;stroke:#00B4CA;stroke-linecap:round;stroke-linejoin:round;stroke-miterlimit:10;" d="M224.116,432.334
				c1.332-1.877,3.089-3.451,5.1-4.57"/>
			<path style="fill:none;stroke:#00B4CA;stroke-linecap:round;stroke-linejoin:round;stroke-miterlimit:10;" d="M219.485,427.354
				c1.104-1.339,2.674-2.286,4.373-2.64"/>
			
				<line style="fill:none;stroke:#00B4CA;stroke-linecap:round;stroke-linejoin:round;stroke-miterlimit:10;" x1="206.193" y1="446.055" x2="206.193" y2="454.747"/>
			
				<line style="fill:none;stroke:#00B4CA;stroke-linecap:round;stroke-linejoin:round;stroke-miterlimit:10;" x1="213.359" y1="446.055" x2="213.359" y2="454.747"/>
			
				<line style="fill:none;stroke:#00B4CA;stroke-linecap:round;stroke-linejoin:round;stroke-miterlimit:10;" x1="227.693" y1="445.722" x2="227.693" y2="454.747"/>
			
				<line style="fill:none;stroke:#00B4CA;stroke-linecap:round;stroke-linejoin:round;stroke-miterlimit:10;" x1="220.526" y1="445.722" x2="220.526" y2="454.747"/>
			
				<line style="fill:none;stroke:#00B4CA;stroke-linecap:round;stroke-linejoin:round;stroke-miterlimit:10;" x1="234.859" y1="445.722" x2="234.859" y2="454.747"/>
			
				<line style="fill:none;stroke:#00B4CA;stroke-linecap:round;stroke-linejoin:round;stroke-miterlimit:10;" x1="242.026" y1="445.555" x2="242.026" y2="454.747"/>
			
				<line style="fill:none;stroke:#00B4CA;stroke-linecap:round;stroke-linejoin:round;stroke-miterlimit:10;" x1="249.193" y1="445.555" x2="249.193" y2="454.747"/>
		</g>
		<path style="fill:#FFD141;" d="M210.909,134.637c5.021,3.565,22.283,17.002,25.283,28.252c1.08,4.051-0.735,13.867-1.5,18
			c-2.145,11.59-1.471,19.429-1.5,31.167l-2.917-0.25l-0.472-5.875L210.909,134.637z"/>
		<g>
			<path style="fill:#321973;" d="M192.963,119.175c1.661-2.105,3.321-4.21,4.982-6.315c-2.482-0.787-4.488-5.951-2.785-8.945
				c2.532-4.449,7.872-1.775,7.872-1.775s11.408,0.748,17.053-10.812c-3.674-6.532-12.733-8.499-18.636-8.166
				c-14.457,0.817-18.883,19.004-12.74,30.023C188.997,113.702,192.61,119.622,192.963,119.175z"/>
			<path style="fill:#321973;" d="M211.105,99.738c2.522,0.682,5.128,1.057,7.74,1.114c1.547,0.034,3.156-0.06,4.52-0.789
				c1.907-1.02,3.018-3.151,3.335-5.291c0.542-3.656-1.161-7.65-4.38-9.466c-3.219-1.817-7.775-1.05-9.947,1.94"/>
			
				<path style="fill:none;stroke:#321973;stroke-width:0.7247;stroke-linecap:round;stroke-linejoin:round;stroke-miterlimit:10;" d="
				M212.766,86.616c1.276-2.013,3.487-3.406,5.854-3.686c2.367-0.28,4.843,0.557,6.554,2.217c1.535,1.489,2.421,3.54,2.906,5.623
				c0.407,1.745,0.534,3.678-0.348,5.237c-1.059,1.873-3.261,2.723-5.293,3.434"/>
			
				<path style="fill:none;stroke:#321973;stroke-width:0.7247;stroke-linecap:round;stroke-linejoin:round;stroke-miterlimit:10;" d="
				M220.323,100.68c3.358,0.495,6.914-1.705,7.968-4.932s-0.514-7.102-3.516-8.686"/>
		</g>
		<circle style="fill:#FFFFFF;" cx="198.804" cy="110.055" r="1"/>
		<g>
			<path style="fill:#FFFFFF;" d="M203.623,118.805l7.27-9.471c4.369-0.444,14.75,0.098,14.75,0.098l1.253,1.833
				c0.739,1.086,0.909,2.456,0.448,3.686c-1.17,3.125-3.592,9.074-5.821,11.285c-1.411,1.4-6.176,3.484-10.369,2.537
				C208.88,128.26,203.623,118.805,203.623,118.805z"/>
			
				<path style="fill:none;stroke:#FFFFFF;stroke-width:0.8764;stroke-linecap:round;stroke-linejoin:round;stroke-miterlimit:10;" d="
				M202.522,101.546c3.772,3.414,7.543,6.827,11.315,10.241"/>
			
				<path style="fill:none;stroke:#FFFFFF;stroke-width:0.8764;stroke-linecap:round;stroke-linejoin:round;stroke-miterlimit:10;" d="
				M196.238,112.23c2.79,2.414,5.581,4.827,8.372,7.241"/>
			<path style="fill:none;stroke:#D3ECEF;stroke-linecap:round;stroke-linejoin:round;stroke-miterlimit:10;" d="M217.717,115.562
				c2.204,0.738,4.408,1.476,6.611,2.213"/>
			<path style="fill:none;stroke:#D3ECEF;stroke-linecap:round;stroke-linejoin:round;stroke-miterlimit:10;" d="M217.508,119.603
				c1.384,0.809,2.767,1.618,4.151,2.427"/>
			<path style="fill:none;stroke:#D3ECEF;stroke-linecap:round;stroke-linejoin:round;stroke-miterlimit:10;" d="M213.703,119.722
				c1.396,1.834,2.791,3.669,4.187,5.503"/>
		</g>
		<g>
			<path style="fill:none;stroke:#00B4CA;stroke-linecap:round;stroke-linejoin:round;stroke-miterlimit:10;" d="M158.446,313.55
				c24.445,1.115,48.899,2.038,73.358,2.767"/>
			<path style="fill:none;stroke:#00B4CA;stroke-linecap:round;stroke-linejoin:round;stroke-miterlimit:10;" d="M180.686,287.706
				c1.05-7.715,2.386-15.392,4.004-23.008c3.662,0.337,7.801,0.976,11.478,1c5.661,0.037,11.317-0.298,16.968-0.633
				c-0.269,7.218-3.332,26.491-3.332,24.491L180.686,287.706z"/>
			<path style="fill:none;stroke:#00B4CA;stroke-linecap:round;stroke-linejoin:round;stroke-miterlimit:10;" d="M183.242,272.107
				c1.872-0.018,21.029,0.991,29.187,0.698"/>
			<path style="fill:none;stroke:#00B4CA;stroke-linecap:round;stroke-linejoin:round;stroke-miterlimit:10;" d="M178.898,229.118
				c3.461-5.155,6.608-10.52,9.417-16.057"/>
			<path style="fill:none;stroke:#00B4CA;stroke-linecap:round;stroke-linejoin:round;stroke-miterlimit:10;" d="M182.214,218.499
				c1.021-1.653,2.043-3.307,3.064-4.96"/>
			<path style="fill:none;stroke:#00B4CA;stroke-linecap:round;stroke-linejoin:round;stroke-miterlimit:10;" d="M226.229,207.055
				c-0.065,38-0.13,76-0.195,114"/>
		</g>
		<g>
			<path style="fill:#D3ECEF;" d="M229.804,205.93c-2.25-0.438-5.928-1.113-8.507-1.431c-7.789-0.96-14.993-3.819-21.771-8.34
				c6.028,6.271,16.013,13.378,24.4,18.636c1.934,1.213,4.527,1.798,6.461,3.01C230.45,212.805,230.221,207.138,229.804,205.93z"/>
			<path style="fill:#FFFFFF;" d="M274.859,205.555c-18.37,1.608-31.22,3.43-49.27-0.349c-7.576-1.586-18.865-3.809-24.564-9.047
				c-5.301-4.872-8.214-17.501-9.393-24.604c-1.179-7.103-0.945-20.524-0.368-27.701c0.761-9.467,6.976-11.371,12.481-11.251
				c5.506,0.12,10.275,4.204,12.938,9.024c2.663,4.82,3.656,10.35,4.897,15.715c1.242,5.365,2.869,10.856,6.488,15.007
				c15.919,1.713,30.54,1.705,46.29,2.455L274.859,205.555z"/>
			<path style="fill:none;stroke:#00B4CA;stroke-linecap:round;stroke-linejoin:round;stroke-miterlimit:10;" d="M190.1,170.053
				c-1.179-7.103-0.945-20.524-0.368-27.701c0.38-4.734,2.124-7.576,4.461-9.221"/>
			<path style="fill:none;stroke:#00B4CA;stroke-linecap:round;stroke-linejoin:round;stroke-miterlimit:10;" d="M186.917,144.057
				c-0.143,4.112,0.556,8.252,2.043,12.088"/>
			<path style="fill:none;stroke:#00B4CA;stroke-linecap:round;stroke-linejoin:round;stroke-miterlimit:10;" d="M259.537,175.036
				c1.116,10.636,1.742,21.324,1.873,32.018"/>
			<path style="fill:none;stroke:#00B4CA;stroke-linecap:round;stroke-linejoin:round;stroke-miterlimit:10;" d="M224.09,205.206
				c-7.576-1.586-18.865-3.809-24.564-9.047"/>
			<path style="fill:none;stroke:#00B4CA;stroke-linecap:round;stroke-linejoin:round;stroke-miterlimit:10;" d="M191.075,174.802
				c0.744,5.38,2.48,10.622,5.094,15.383"/>
			<path style="fill:none;stroke:#00B4CA;stroke-linecap:round;stroke-linejoin:round;stroke-miterlimit:10;" d="M223.94,174.57
				c1.134-0.79,2.34-1.477,3.599-2.05"/>
			<path style="fill:none;stroke:#00B4CA;stroke-linecap:round;stroke-linejoin:round;stroke-miterlimit:10;" d="M222.041,173.892
				c1.767-0.681,3.618-1.143,5.497-1.371"/>
		</g>
	</g>
	<g>
		
			<line style="fill:none;stroke:#00B4CA;stroke-linecap:round;stroke-linejoin:round;stroke-miterlimit:10;" x1="257.36" y1="431.304" x2="745.216" y2="431.304"/>
		<polyline style="fill:none;stroke:#00B4CA;stroke-linecap:round;stroke-linejoin:round;stroke-miterlimit:10;" points="
			10.635,431.304 157.36,431.304 188.36,431.304 		"/>
	</g>
	<g>
		<g>
			<path style="fill:#FFFFFF;" d="M558.36,274.604H276.804v-10.632c0-8.54,6.923-15.463,15.463-15.463h250.63
				c8.54,0,15.463,6.923,15.463,15.463V274.604z"/>
			<rect x="286.554" y="385.056" style="fill:#00B4CA;" width="83.25" height="7.333"/>
			<rect x="458.497" y="385.056" style="fill:#00B4CA;" width="83.25" height="7.333"/>
			<path style="fill:#00B4CA;" d="M285.304,453.055l-1.25-176.682l7.763,0.017c-0.454,35.527,0.487,176.665,0.487,176.665H285.304z"
				/>
			<path style="fill:#00A1AD;" d="M363.299,453.055l-1.25-178.682l7.763,0.017c-0.454,35.527,0.487,178.665,0.487,178.665H363.299z"
				/>
			<path style="fill:#00B4CA;" d="M456.737,453.055l-1.25-176.682l7.763,0.017c-0.454,35.527,0.487,176.665,0.487,176.665H456.737z"
				/>
			<path style="fill:#00A1AD;" d="M538.732,453.055l-1.25-176.682l7.763,0.017c-0.454,35.527,0.487,176.665,0.487,176.665H538.732z"
				/>
			<rect x="272.986" y="273.604" style="fill:#00B4CA;" width="291.919" height="7.452"/>
			
				<line style="fill:none;stroke:#4ABCB6;stroke-linecap:round;stroke-linejoin:round;stroke-miterlimit:10;" x1="538.693" y1="269.722" x2="558.86" y2="269.722"/>
			
				<line style="fill:none;stroke:#4ABCB6;stroke-linecap:round;stroke-linejoin:round;stroke-miterlimit:10;" x1="277.36" y1="270.388" x2="297.36" y2="270.388"/>
		</g>
		
			<line style="fill:none;stroke:#00B4CA;stroke-linecap:round;stroke-linejoin:round;stroke-miterlimit:10;" x1="267.887" y1="453.055" x2="564.804" y2="453.055"/>
	</g>
	<g>
		
			<ellipse transform="matrix(0.7071 -0.7071 0.7071 0.7071 72.3219 378.7097)" style="fill:none;stroke:#00B4CA;stroke-linecap:round;stroke-linejoin:round;stroke-miterlimit:10;" cx="493.304" cy="102.055" rx="35.683" ry="35.683"/>
		
			<circle style="fill:none;stroke:#00B4CA;stroke-linecap:round;stroke-linejoin:round;stroke-miterlimit:10;" cx="493.304" cy="102.055" r="29"/>
		<circle style="fill:#00B4CA;" cx="493.304" cy="102.055" r="2.125"/>
		
			<line style="fill:none;stroke:#00B4CA;stroke-linecap:round;stroke-linejoin:round;stroke-miterlimit:10;" x1="493.304" y1="101.305" x2="493.304" y2="81.888"/>
		<path style="fill:none;stroke:#00B4CA;stroke-linecap:round;stroke-linejoin:round;stroke-miterlimit:10;" d="M494.018,101.743
			c1.911-4.165,3.669-8.4,5.268-12.695"/>
	</g>
	<g>
		<rect x="606.439" y="325.055" style="fill:#FFFFFF;" width="113.256" height="128"/>
		<polygon style="fill:#FFFFFF;" points="724.693,333.055 601.693,333.055 601.36,321.055 724.36,321.055 		"/>
		<polygon style="fill:#D3EDEA;" points="606.318,333.055 720.027,333.055 606.318,343.055 		"/>
		
			<line style="fill:none;stroke:#00B4CA;stroke-linecap:round;stroke-linejoin:round;stroke-miterlimit:10;" x1="605.027" y1="333.055" x2="720.027" y2="333.055"/>
		<path style="fill:none;stroke:#00B4CA;stroke-linecap:round;stroke-linejoin:round;stroke-miterlimit:10;" d="M607.688,370.54
			c37.33,1.428,74.343-0.579,111.672,0.848"/>
		<path style="fill:none;stroke:#00B4CA;stroke-linecap:round;stroke-linejoin:round;stroke-miterlimit:10;" d="M606.736,375.027
			c40.124,0.362,112.124,0.362,112.124,0.362"/>
		<path style="fill:none;stroke:#00B4CA;stroke-linecap:round;stroke-linejoin:round;stroke-miterlimit:10;" d="M607.03,420.775
			c36.908-0.288,76.33-0.22,112.33-0.22"/>
		<path style="fill:none;stroke:#00B4CA;stroke-linecap:round;stroke-linejoin:round;stroke-miterlimit:10;" d="M606.86,416.009
			c37.167,0.208,74.335,0.417,111.502,0.625"/>
		<path style="fill:none;stroke:#00B4CA;stroke-linecap:round;stroke-linejoin:round;stroke-miterlimit:10;" d="M599.36,452.555
			c0.667,0,1.333,0,2,0h124.68"/>
		<path style="fill:none;stroke:#00B4CA;stroke-linecap:round;stroke-linejoin:round;stroke-miterlimit:10;" d="M676.505,349.656
			v-5.937h-28.502v6.054C648.795,349.773,676.505,349.656,676.505,349.656z"/>
		<path style="fill:none;stroke:#00B4CA;stroke-linecap:round;stroke-linejoin:round;stroke-miterlimit:10;" d="M676.505,386.388
			v-5.937h-28.502v6.054C648.795,386.506,676.505,386.388,676.505,386.388z"/>
		<path style="fill:none;stroke:#00B4CA;stroke-linecap:round;stroke-linejoin:round;stroke-miterlimit:10;" d="M676.505,432.457
			v-5.937h-28.502v6.054C648.795,432.575,676.505,432.457,676.505,432.457z"/>
	</g>
	<g>
		<path style="fill:#32A4F9;" d="M663.414,300.122c-0.236-2.838-4.445-4.752-5.141-7.514c-0.23-0.914-0.01-3.07-0.126-4.006h-0.676
			h-1.227h-2.147c-0.117,0.936,0.104,3.091-0.126,4.006c-0.695,2.761-4.905,4.676-5.141,7.514c-0.561,6.752-0.775,14.09-0.319,20.85
			h7.252h2.19h5.781C664.188,314.211,663.975,306.874,663.414,300.122z"/>
		<rect x="653.421" y="287.888" style="fill:#FFFFFF;" width="5.507" height="2.656"/>
	</g>
	<g>
		<path style="fill:#00B4CA;" d="M614.527,223.93c-1.344-7.346-1.981-15-0.072-22.22c1.909-7.22,6.725-13.983,13.687-16.686
			c7.303-2.836,16.515-1.24,22.226-6.602c2.536-2.38,3.865-5.739,5.772-8.647c4.55-6.941,14.424-11.234,21.381-6.708
			c4.214,2.741,6.445,8.02,10.968,10.213c4.843,2.348,10.534,0.413,15.887-0.146c5.353-0.56,14.722,2.379,14.983,7.755
			c0.697,14.346-0.116,29.15,0.5,43.5C719.86,224.388,614.706,223.526,614.527,223.93z"/>
		<path style="fill:none;stroke:#FFFFFF;stroke-width:0.9457;stroke-miterlimit:10;" d="M719.993,225.055l-1.42-154.543H604.619
			v154.543C604.619,225.055,717.867,226.193,719.993,225.055z"/>
		<polyline style="fill:none;stroke:#FFFFFF;stroke-width:0.9457;stroke-miterlimit:10;" points="724.78,224.722 723.36,65.262 
			599.369,65.262 599.369,224.722 		"/>
		<path style="fill:none;stroke:#FFFFFF;stroke-width:0.9457;stroke-miterlimit:10;" d="M605.36,142.055
			c38.317,1.096,114-0.5,114-0.5"/>
		
			<line style="fill:none;stroke:#FFFFFF;stroke-width:0.9457;stroke-miterlimit:10;" x1="605.027" y1="149.722" x2="719.027" y2="148.722"/>
		<g>
			<path style="fill:none;stroke:#FFFFFF;stroke-width:0.9457;stroke-miterlimit:10;" d="M649.513,107.938
				c5.09,4.248,10.295,8.358,15.608,12.324"/>
			<path style="fill:none;stroke:#FFFFFF;stroke-width:0.9457;stroke-miterlimit:10;" d="M649.619,99.16
				c9.795,6.959,19.246,14.403,28.306,22.296"/>
		</g>
		<rect x="595.162" y="224.109" style="fill:#FFFFFF;" width="132.396" height="10.403"/>
		<polygon style="opacity:0.64;fill:#57C1BC;" points="595.162,234.512 595.162,248.389 727.558,234.512 		"/>
	</g>
	<g>
		<rect x="40.694" y="96.053" style="fill:#FFFFFF;" width="81.333" height="112.481"/>
		<polygon style="opacity:0.64;fill:#57C1BC;" points="40.36,208.18 40.36,216.554 120.251,208.18 		"/>
		<g>
			<g>
				<rect x="53.691" y="137.615" style="fill:#32A4F9;" width="54.833" height="11.7"/>
				
					<line style="fill:none;stroke:#32A4F9;stroke-linecap:round;stroke-linejoin:round;stroke-miterlimit:10;" x1="55.024" y1="180.71" x2="108.529" y2="180.71"/>
				
					<line style="fill:none;stroke:#32A4F9;stroke-linecap:round;stroke-linejoin:round;stroke-miterlimit:10;" x1="55.024" y1="189.044" x2="108.529" y2="189.044"/>
				
					<line style="fill:none;stroke:#32A4F9;stroke-linecap:round;stroke-linejoin:round;stroke-miterlimit:10;" x1="55.024" y1="197.044" x2="108.529" y2="197.044"/>
				
					<line style="fill:none;stroke:#32A4F9;stroke-linecap:round;stroke-linejoin:round;stroke-miterlimit:10;" x1="55.024" y1="155.377" x2="108.529" y2="155.377"/>
				
					<line style="fill:none;stroke:#32A4F9;stroke-linecap:round;stroke-linejoin:round;stroke-miterlimit:10;" x1="55.024" y1="163.71" x2="108.529" y2="163.71"/>
				
					<line style="fill:none;stroke:#32A4F9;stroke-linecap:round;stroke-linejoin:round;stroke-miterlimit:10;" x1="55.024" y1="171.71" x2="108.529" y2="171.71"/>
			</g>
			<g>
				<rect x="69.027" y="107.044" style="fill:#32A4F9;" width="24.667" height="24"/>
				<g>
					<path style="fill:#FFFFFF;" d="M79.322,126.71c-0.18-3.78,0.135-12.72-0.045-16.5h4.625l-0.25,16.5H79.322z"/>
					<path style="fill:#FFFFFF;" d="M73.84,116.658c3.78-0.18,11.706,0.135,15.485-0.045v4.625l-15.485-0.25V116.658z"/>
				</g>
			</g>
		</g>
	</g>
	<g>
		<path style="fill:#32A4F9;" d="M705.68,276.405c-0.503-6.054-9.484-10.139-10.968-16.03c-0.491-1.951-0.021-6.549-0.269-8.546H693
			h-2.618H685.8c-0.249,1.997,0.222,6.595-0.269,8.546c-1.484,5.891-10.464,9.976-10.968,16.03
			c-1.198,14.406-1.653,30.06-0.68,44.483h15.472h4.672h12.333C707.333,306.465,706.877,290.811,705.68,276.405z"/>
		<rect x="684.36" y="250.305" style="fill:#FFFFFF;" width="11.75" height="3.25"/>
		<circle style="fill:#FFFFFF;" cx="690.693" cy="294.055" r="13.667"/>
		<g>
			<path style="fill:#32A4F9;" d="M688.155,302.055c-0.18-3.78,0.135-12.72-0.045-16.5h4.625l-0.25,16.5H688.155z"/>
			<path style="fill:#32A4F9;" d="M682.673,292.002c3.78-0.18,11.706,0.135,15.485-0.045v4.625l-15.485-0.25V292.002z"/>
		</g>
	</g>
	<g>
		<g>
			<path style="fill:#00B4CA;" d="M67.58,381.033c-10.252-42.944-2.143-89.663,5.988-133.058
				c9.805,21.271,9.201,46.641,8.982,70.062c-0.196,21.002-0.618,42.003-1.265,62.996"/>
			<path style="fill:#00A1AD;" d="M79.769,381.009c0.711-41.083,15.696-82.953,41.869-114.627
				c-6.408,36.123-14.852,78.311-32.691,114.627"/>
			<path style="fill:#00B4CA;" d="M90.296,380.812c1.248-4.946,2.46-8.9,7.349-12.176c4.889-3.276,11.214-4.709,16.451-2.135
				c2.328,1.144,4.295,2.992,6.126,4.92c8.164,8.597,11.943,15.011,18.387,26.586c0.3-9.551-2.444-23.356-7.716-33.423
				c-5.272-10.067-15.65-17.954-26.217-16.106c-6.323,1.106-11.831,5.505-15.861,10.884c-4.03,5.379-8.715,12.908-10.379,21.451"/>
			<path style="fill:#00A1AD;" d="M46.255,354.626c-4.648-7.022-9.333-14.117-12.333-21.986c-2.256-5.919-3.514-12.163-4.762-18.373
				c-1.696-8.44-3.393-16.879-5.089-25.319c6.616,15.094,19.908,26.35,27.336,41.062c4.13,8.181,6.319,17.179,8.474,26.086
				c1.613,6.665,7.356,17.393,8.189,24.171C60.534,379.2,50.65,360.273,46.255,354.626z"/>
		</g>
		<path style="fill:#FFFFFF;" d="M104.488,437.446l8.794-54.001c0,0-68.865,0.381-69.69,0.619l9.539,53.585
			c1.233,8.788,8.752,15.325,17.626,15.325h16.077C95.787,452.975,103.346,446.325,104.488,437.446z"/>
		<rect x="39.096" y="381.037" style="fill:#FFFFFF;" width="80.031" height="11.69"/>
		<path style="fill:#D3EDEA;" d="M46.964,403.405c20.152-3.21,41.394-7.051,61.388-11.128l-63.186,0.562L46.964,403.405z"/>
		
			<line style="fill:none;stroke:#00B4CA;stroke-width:0.8992;stroke-linecap:round;stroke-linejoin:round;stroke-miterlimit:10;" x1="39.32" y1="392.502" x2="119.006" y2="392.502"/>
		
			<path style="fill:none;stroke:#00B4CA;stroke-width:0.8992;stroke-linecap:round;stroke-linejoin:round;stroke-miterlimit:10;" d="
			M90.991,449.194c4.763-1.638,8.379-6.202,8.884-11.213"/>
		
			<line style="fill:none;stroke:#00B4CA;stroke-linecap:round;stroke-linejoin:round;stroke-miterlimit:10;" x1="54.466" y1="452.555" x2="115.375" y2="452.555"/>
		<path style="fill:none;stroke:#006884;stroke-linecap:round;stroke-linejoin:round;stroke-miterlimit:10;" d="M73.87,248.626
			c1.977,22.272,2.2,44.699,0.667,67.005"/>
		<path style="fill:none;stroke:#006884;stroke-linecap:round;stroke-linejoin:round;stroke-miterlimit:10;" d="M73.902,379.314
			c0.275-9.779,0.55-19.559,0.825-29.338"/>
		<path style="fill:none;stroke:#006884;stroke-linecap:round;stroke-linejoin:round;stroke-miterlimit:10;" d="M74.711,341.641
			c-0.149-3.002-0.052-6.016,0.291-9.002"/>
		<path style="fill:none;stroke:#006884;stroke-linecap:round;stroke-linejoin:round;stroke-miterlimit:10;" d="M74.693,325.308
			c0-1.111,0-2.222,0-3.333"/>
		<path style="fill:none;stroke:#006884;stroke-linecap:round;stroke-linejoin:round;stroke-miterlimit:10;" d="M120.933,267.929
			c-7.251,15.006-13.444,30.522-18.52,46.396"/>
		<path style="fill:none;stroke:#006884;stroke-linecap:round;stroke-linejoin:round;stroke-miterlimit:10;" d="M89.908,356.272
			c3.523-11.712,7.251-23.362,11.182-34.943"/>
		<path style="fill:none;stroke:#006884;stroke-linecap:round;stroke-linejoin:round;stroke-miterlimit:10;" d="M88.169,371.468
			c2.353-6.96,8.458-12.522,15.607-14.217c1.729-0.41,3.513-0.608,5.288-0.517c5.974,0.306,11.4,3.88,15.271,8.442
			c3.871,4.561,6.42,10.069,8.923,15.503"/>
		<path style="fill:none;stroke:#006884;stroke-linecap:round;stroke-linejoin:round;stroke-miterlimit:10;" d="M134.714,384.3
			c1.479,4,2.582,8.139,3.291,12.345"/>
		<path style="fill:none;stroke:#006884;stroke-linecap:round;stroke-linejoin:round;stroke-miterlimit:10;" d="M24.074,290.44
			c9.048,19.584,18.371,39.041,27.963,58.364"/>
		<path style="fill:none;stroke:#006884;stroke-linecap:round;stroke-linejoin:round;stroke-miterlimit:10;" d="M54.631,355.142
			c2.537,4.805,5.075,9.61,7.613,14.415c1.864,3.53,3.767,7.114,6.557,9.97"/>
	</g>
	<g>
		<g>
			<path style="fill:#321973;" d="M370.482,118.664c2.842,0.823,6.155,1.68,9.061,1.124c2.907-0.556,5.7-2.298,6.949-4.98
				c0.984-2.113,0.932-4.566,0.544-6.864c-0.56-3.315-1.767-6.482-2.968-9.622c-1.395-3.651-2.79-7.301-4.186-10.952
				c-0.707-1.85-1.544-3.853-3.29-4.788c-1,1.778-1.702,3.491-1.998,5.509C373.052,98.61,372.025,108.144,370.482,118.664z"/>
			<path style="fill:#321973;" d="M370.428,118.678c0,0-0.154,1.905-0.165,2.668c-0.011,0.736,0.208,3.417,0.208,3.417
				c3.625,0.371,8.635-0.993,9.536-4.525c0.642-2.516,2.745-4.456,4.072-6.688"/>
			<path style="fill:#321973;" d="M354.054,118.43c-5.404,0.259-13.609-1.231-17.146-5.326c-3.537-4.095-3.159-11.133,0.896-14.716
				c1.946-1.72,4.582-1.672,6.706-3.695c2.971-2.83,2.089-5.372,3.746-9.126c4.107-9.301,16.427-10.025,21.516-4.781
				c-4.473,4.465-11.426,11.157-15.899,15.622c-1.268-0.815-3.811-0.412-4.681,0.393c-1.649,1.525-1.588,3.356-0.604,5.375
				c0.984,2.019,3.189,3.068,5.34,3.712C353.989,110.66,354.537,114.746,354.054,118.43z"/>
			<path style="fill:#321973;" d="M340.83,114.158c1.061,5.456,7.292,9.719,12.849,9.605c0.509-2.971,0.5-10.542,0.5-10.542"/>
			
				<path style="fill:none;stroke:#321973;stroke-width:0.7247;stroke-linecap:round;stroke-linejoin:round;stroke-miterlimit:10;" d="
				M341.492,116.087c-6.261-3.094-12.232-8.849-7.413-16.094c3.157-4.746,8.623-4.35,12.806-7.461
				c2.81-2.09,4.965-5.045,6.097-8.359"/>
			
				<path style="fill:none;stroke:#321973;stroke-width:0.7247;stroke-linecap:round;stroke-linejoin:round;stroke-miterlimit:10;" d="
				M381.967,91.819c0.714,2.787,2.169,5.315,3.557,7.835c1.388,2.52,2.743,5.123,3.224,7.959c0.481,2.836-0.041,5.984-2.015,8.076
				c-1.582,1.676-3.867,2.476-6.094,3.073"/>
		</g>
		<g>
			<path style="fill:#D3ECEF;" d="M413.91,335.297c-1.991,4.354-1.122,9.526,0.78,13.919c1.903,4.393,4.758,8.307,6.894,12.591
				c1.189,2.384,2.148,4.882,2.868,7.447c1.372,4.885-5.081,10.334-9.148,7.301c-1.317-0.982-15.234-10.351-19.352-15.291
				c-1.666-1.999-4.313-4.055-4.928-6.885c-0.293-1.348,0.774-4.314,0.973-5.678c0.733-5.033,1.466-10.066,2.199-15.098"/>
			<path style="fill:none;stroke:#00B4CA;stroke-linecap:round;stroke-linejoin:round;stroke-miterlimit:10;" d="M393.115,349.036
				c5.157,5.493,9.526,10.57,15.314,15.393c2.25,1.875,4.828,4.277,7.125,6c2.5,1.875,5.211,2.578,7.794,1.323"/>
			<path style="fill:none;stroke:#00B4CA;stroke-linecap:round;stroke-linejoin:round;stroke-miterlimit:10;" d="M413.589,368.081
				c1.985-2.626,5.18-4.297,8.469-4.43"/>
			<path style="fill:none;stroke:#00B4CA;stroke-linecap:round;stroke-linejoin:round;stroke-miterlimit:10;" d="M415.297,360.546
				c1.367-1.054,3.048-1.696,4.769-1.823"/>
			<path style="fill:none;stroke:#00B4CA;stroke-linecap:round;stroke-linejoin:round;stroke-miterlimit:10;" d="M412.067,355.823
				c1.534-1.049,3.38-1.637,5.239-1.666"/>
			<path style="fill:none;stroke:#00B4CA;stroke-linecap:round;stroke-linejoin:round;stroke-miterlimit:10;" d="M409.995,351.324
				c1.495-0.356,2.989-0.713,4.484-1.069"/>
			<path style="fill:none;stroke:#00B4CA;stroke-linecap:round;stroke-linejoin:round;stroke-miterlimit:10;" d="M395.961,356.894
				c3.625,3.792,7.325,7.512,11.098,11.156"/>
			<path style="fill:none;stroke:#00B4CA;stroke-linecap:round;stroke-linejoin:round;stroke-miterlimit:10;" d="M410.175,344.784
				c-2.665,0.496-5.491,0.083-7.902-1.155c-1.087-0.558-2.185-1.431-2.308-2.647c-0.153-1.507,1.389-2.775,2.903-2.823
				C404.382,338.112,409.206,342.949,410.175,344.784z"/>
			<path style="fill:none;stroke:#00B4CA;stroke-linecap:round;stroke-linejoin:round;stroke-miterlimit:10;" d="M414.178,338.994
				c0.919-0.838,2.03-1.593,3.274-1.607c1.244-0.015,2.551,1.009,2.421,2.246c-0.115,1.093-1.191,1.793-2.176,2.282
				c-2.019,1.002-4.833,2.478-7.086,2.408C411.016,342.316,412.668,340.371,414.178,338.994z"/>
			<path style="fill:none;stroke:#00B4CA;stroke-linecap:round;stroke-linejoin:round;stroke-miterlimit:10;" d="M410.16,344.603
				c-0.826,1.819-2,3.48-3.44,4.865"/>
		</g>
		<g>
			<path style="fill:#3D2593;" d="M348.637,208.388c-4.333,9-6.051,17.139-3.29,26.642c2.761,9.503,11.281,14.73,21.043,16.358
				c5.218,0.87,10.549,0.326,15.829,0c11.407-0.704,25.751,0,25.751,0l-20.667,84.333h42.501c2.168-9.756,3.947-25.527,7.5-39.167
				c6.28-24.109,14.771-47.689,16.953-63.41c1.462-10.527-4.741-20.73-14.845-24.024c-0.081-0.026-0.162-0.053-0.244-0.078
				c-2.733-0.869-5.586-1.314-8.45-1.453C403.328,206.258,376.035,208.527,348.637,208.388z"/>
			
				<line style="fill:none;stroke:#321973;stroke-width:0.7247;stroke-linecap:round;stroke-linejoin:round;stroke-miterlimit:10;" x1="403.304" y1="326.555" x2="421.366" y2="326.555"/>
		</g>
		<g>
			<path style="fill:#FFFFFF;" d="M394.91,335.297c-1.991,4.354-1.122,9.526,0.78,13.919c1.903,4.393,4.758,8.307,6.894,12.591
				c1.189,2.384,2.148,4.882,2.868,7.447c1.372,4.885-5.081,10.334-9.148,7.301c-1.317-0.982-15.234-10.351-19.352-15.291
				c-1.666-1.999-4.313-4.055-4.928-6.885c-0.293-1.348,0.774-4.314,0.973-5.678c0.733-5.033,1.466-10.066,2.199-15.098"/>
			<path style="fill:none;stroke:#00B4CA;stroke-linecap:round;stroke-linejoin:round;stroke-miterlimit:10;" d="M374.115,349.036
				c5.157,5.493,9.526,10.57,15.314,15.393c2.25,1.875,4.828,4.277,7.125,6c2.5,1.875,5.211,2.578,7.794,1.323"/>
			<path style="fill:none;stroke:#00B4CA;stroke-linecap:round;stroke-linejoin:round;stroke-miterlimit:10;" d="M394.589,368.081
				c1.985-2.626,5.18-4.297,8.469-4.43"/>
			<path style="fill:none;stroke:#00B4CA;stroke-linecap:round;stroke-linejoin:round;stroke-miterlimit:10;" d="M396.297,360.546
				c1.367-1.054,3.048-1.696,4.769-1.823"/>
			<path style="fill:none;stroke:#00B4CA;stroke-linecap:round;stroke-linejoin:round;stroke-miterlimit:10;" d="M393.067,355.823
				c1.534-1.049,3.38-1.637,5.239-1.666"/>
			<path style="fill:none;stroke:#00B4CA;stroke-linecap:round;stroke-linejoin:round;stroke-miterlimit:10;" d="M390.995,351.324
				c1.495-0.356,2.989-0.713,4.484-1.069"/>
			<path style="fill:none;stroke:#00B4CA;stroke-linecap:round;stroke-linejoin:round;stroke-miterlimit:10;" d="M376.961,356.894
				c3.625,3.792,7.325,7.512,11.098,11.156"/>
			<path style="fill:none;stroke:#00B4CA;stroke-linecap:round;stroke-linejoin:round;stroke-miterlimit:10;" d="M391.175,344.784
				c-2.665,0.496-5.491,0.083-7.902-1.155c-1.087-0.558-2.185-1.431-2.308-2.647c-0.153-1.507,1.389-2.775,2.903-2.823
				C385.382,338.112,390.206,342.949,391.175,344.784z"/>
			<path style="fill:none;stroke:#00B4CA;stroke-linecap:round;stroke-linejoin:round;stroke-miterlimit:10;" d="M395.178,338.994
				c0.919-0.838,2.03-1.593,3.274-1.607c1.244-0.015,2.551,1.009,2.421,2.246c-0.115,1.093-1.191,1.793-2.176,2.282
				c-2.019,1.002-4.833,2.478-7.086,2.408C392.016,342.316,393.668,340.371,395.178,338.994z"/>
			<path style="fill:none;stroke:#00B4CA;stroke-linecap:round;stroke-linejoin:round;stroke-miterlimit:10;" d="M391.16,344.603
				c-0.826,1.819-2,3.48-3.44,4.865"/>
		</g>
		<g>
			<path style="fill:#FF9988;" d="M410.361,237.329c-0.303-12.822-0.605-29.92-0.908-42.742c-0.091-3.869-0.183-7.739-0.274-11.608
				c-0.239-10.116-0.027-21.432-1.624-31.423c-1.721,0.205-3.616,1.566-5.261,2.112c-2.663,0.884-5.95,2.066-8.614,2.951
				c-0.731,18.838-1.708,35.771-2.221,55.899c-0.209,8.219,0.495,16.741,2.058,24.813C398.872,237.27,405.3,239.081,410.361,237.329
				z"/>
			<path style="fill:#F27B6B;" d="M393.816,158.678c3.377-0.139,13.451-2.198,14.348-2.467c-0.117-1.406-0.516-4.094-0.547-4.188
				c-4.476,1.489-9.348,3.283-13.824,4.772C393.741,157.587,393.816,158.678,393.816,158.678z"/>
		</g>
		<g>
			<path style="fill:#0083F5;" d="M392.137,212.555h-60.667l1.25-79.25l19.25-5.25l20.083-1.417l20.083,7.25
				c0,0,1.333,4.5,1.667,24.167C394.003,169.786,392.137,212.555,392.137,212.555z"/>
			<path style="fill:#FFFFFF;" d="M363.611,134.13c-3.582-0.214-9.713-4.345-10.141-7.908c-2.081-0.057-3.24,1.146-4.333,2.917
				c-1.136,1.839,2.016,6.235,3.732,7.551c1.715,1.316,3.966,1.782,6.126,1.69c0.561-0.024,1.134-0.086,1.643-0.324
				C361.84,137.492,362.666,135.063,363.611,134.13z"/>
			<path style="fill:#FFFFFF;" d="M363.487,134.161c1.254,1.637,3.313,3.19,5.361,3.436c2.048,0.246,4.256-0.599,5.41-2.308
				c1.163-1.721,2.051-4.645,1.858-6.712c-1.378-1.551-3.576-2.671-5.633-2.941C370.096,129.234,367.03,133.415,363.487,134.161z"/>
			<path style="fill:#0083F5;" d="M336.004,155.838c-4.83-3.721-17.29-15.147-16.808-16.001c2.323-4.112,7.28-5.593,11.767-7.067
				c1.1-0.361,6.183-0.594,7.34-0.549c1.157,0.046-1.588,0.457-1.073,1.495c3.735,7.525,1.329,15.369,0.672,23.744
				C336.75,157.021,336.982,156.592,336.004,155.838z"/>
			<path style="fill:#0083F5;" d="M387.847,158.275c6.785-1.322,15.208-4.614,21.707-6.97c0.452-0.164-2.167-7.334-2.5-8
				c-3.592-7.192-14.25-10.583-21.253-11.503"/>
			<path style="fill:none;stroke:#004BC4;stroke-width:0.75;stroke-linecap:round;stroke-linejoin:round;stroke-miterlimit:10;" d="
				M335.554,205.222c18.75-0.25,37.875-1.042,55.877-1.563"/>
			<path style="fill:none;stroke:#004BC4;stroke-width:0.75;stroke-linecap:round;stroke-linejoin:round;stroke-miterlimit:10;" d="
				M335.819,132.55c0.668,2.166,1.336,4.333,2.004,6.499"/>
			<path style="fill:none;stroke:#004BC4;stroke-width:0.75;stroke-linecap:round;stroke-linejoin:round;stroke-miterlimit:10;" d="
				M388.179,132.68c0.426,1.998,0.751,3.366,1.177,5.364"/>
			<path style="fill:none;stroke:#004BC4;stroke-width:0.75;stroke-linecap:round;stroke-linejoin:round;stroke-miterlimit:10;" d="
				M388.809,134.333c1.835,0.168,3.641,0.648,5.317,1.413"/>
			<path style="fill:none;stroke:#004BC4;stroke-width:0.75;stroke-linecap:round;stroke-linejoin:round;stroke-miterlimit:10;" d="
				M393.304,153.43c4.682-1.693,8.752-3.62,13.125-6"/>
			<path style="fill:none;stroke:#004BC4;stroke-width:0.75;stroke-linecap:round;stroke-linejoin:round;stroke-miterlimit:10;" d="
				M389.78,143.13c1.521,6.185,2.595,12.505,2.732,18.873c0.124,5.807-0.531,11.598-0.949,17.392
				c-0.664,9.198-0.731,18.287-0.2,27.493"/>
			<path style="fill:none;stroke:#004BC4;stroke-width:0.75;stroke-linecap:round;stroke-linejoin:round;stroke-miterlimit:10;" d="
				M383.417,130.989c3.121,25.205-1.022,50.55,0.538,75.899"/>
			<path style="fill:none;stroke:#004BC4;stroke-width:0.75;stroke-linecap:round;stroke-linejoin:round;stroke-miterlimit:10;" d="
				M374.695,137.391c0.522,23.556,1.044,45.941,1.566,69.498"/>
			<path style="fill:none;stroke:#004BC4;stroke-width:0.75;stroke-linecap:round;stroke-linejoin:round;stroke-miterlimit:10;" d="
				M363.888,135.735c-0.745,23.658-0.849,47.49-0.313,71.154"/>
			<path style="fill:none;stroke:#004BC4;stroke-width:0.75;stroke-linecap:round;stroke-linejoin:round;stroke-miterlimit:10;" d="
				M355.743,140.067c-0.988,22.536-1.075,44.279-0.262,66.821"/>
			<path style="fill:none;stroke:#004BC4;stroke-width:0.75;stroke-linecap:round;stroke-linejoin:round;stroke-miterlimit:10;" d="
				M346.614,129.72c0.257,25.998,0.201,51.171-0.169,77.168"/>
			<path style="fill:none;stroke:#004BC4;stroke-width:0.75;stroke-linecap:round;stroke-linejoin:round;stroke-miterlimit:10;" d="
				M339.471,131.888c-1.631,25.399-1.113,49.554-0.596,75"/>
			
				<line style="fill:none;stroke:#004BC4;stroke-width:0.75;stroke-linecap:round;stroke-linejoin:round;stroke-miterlimit:10;" x1="339.137" y1="143.388" x2="389.481" y2="143.388"/>
			<path style="fill:none;stroke:#004BC4;stroke-width:0.75;stroke-linecap:round;stroke-linejoin:round;stroke-miterlimit:10;" d="
				M338.179,160.305c0,0,42.107,1.052,54.875-3"/>
			<path style="fill:none;stroke:#004BC4;stroke-width:0.75;stroke-linecap:round;stroke-linejoin:round;stroke-miterlimit:10;" d="
				M338.137,173.055c0,0,40.917,3.25,54.667,0"/>
			
				<line style="fill:none;stroke:#004BC4;stroke-width:0.75;stroke-linecap:round;stroke-linejoin:round;stroke-miterlimit:10;" x1="337.137" y1="190.055" x2="391.801" y2="190.055"/>
			<path style="fill:none;stroke:#004BC4;stroke-width:0.75;stroke-linecap:round;stroke-linejoin:round;stroke-miterlimit:10;" d="
				M391.205,139.307c4.43,3.709,7.435,9.079,8.28,14.795"/>
			<path style="fill:none;stroke:#004BC4;stroke-width:0.75;stroke-linecap:round;stroke-linejoin:round;stroke-miterlimit:10;" d="
				M392.431,147.662c3.41-2.283,6.374-5.23,8.676-8.628"/>
			<path style="fill:none;stroke:#004BC4;stroke-width:0.75;stroke-linecap:round;stroke-linejoin:round;stroke-miterlimit:10;" d="
				M324.53,135.993c4.416,4.259,8.654,8.702,12.701,13.313"/>
			<path style="fill:none;stroke:#004BC4;stroke-width:0.75;stroke-linecap:round;stroke-linejoin:round;stroke-miterlimit:10;" d="
				M329.783,139.701c1.577-1.601,3.775-2.572,6.02-2.66"/>
			<path style="fill:none;stroke:#004BC4;stroke-width:0.75;stroke-linecap:round;stroke-linejoin:round;stroke-miterlimit:10;" d="
				M328.796,133.73c3.354,3.141,6.282,6.735,8.679,10.655"/>
			<path style="fill:none;stroke:#004BC4;stroke-width:0.75;stroke-linecap:round;stroke-linejoin:round;stroke-miterlimit:10;" d="
				M321.491,137.365c1.532,1.36,3.063,2.721,4.595,4.081"/>
		</g>
		<g>
			<path style="fill:#321973;" d="M332.137,208.388c-4.333,9-6.051,17.139-3.29,26.642c2.761,9.503,11.281,14.73,21.043,16.358
				c5.218,0.87,10.549,0.326,15.829,0c11.407-0.704,25.751,0,25.751,0l-5.979,18.91c0,0-11.437,26.632-15.187,37.257
				c-6,17-5.5,28.167-5.5,28.167h36.667c8.614-26.489,32.87-77.962,36.287-102.576c1.462-10.527-4.741-20.73-14.845-24.024
				c-0.081-0.026-0.162-0.053-0.244-0.078c-2.733-0.869-5.586-1.314-8.45-1.453C386.829,206.258,359.536,208.527,332.137,208.388z"
				/>
			<path style="fill:none;stroke:#3D2593;stroke-miterlimit:10;" d="M385.804,335.055c7.217-22.192,25.5-67.26,29.068-87.771
				c3.432-19.729-17.321-21.294-19.72-21.41c-22.948-1.115-36.06,0.786-59.014,0.669"/>
			<line style="fill:none;stroke:#3D2593;stroke-miterlimit:10;" x1="368.804" y1="326.388" x2="400.811" y2="326.388"/>
			<path style="fill:none;stroke:#3D2593;stroke-linecap:round;stroke-linejoin:round;stroke-miterlimit:10;" d="M424.631,217.747
				c1.641,2.186,3.282,4.372,4.923,6.558"/>
			<path style="fill:none;stroke:#3D2593;stroke-linecap:round;stroke-linejoin:round;stroke-miterlimit:10;" d="M429.892,220.498
				c1.313,2.013,2.626,4.026,3.94,6.039"/>
			<path style="fill:none;stroke:#3D2593;stroke-miterlimit:10;" d="M382.845,331.074c1.988-4.2,3.618-8.569,4.866-13.045"/>
		</g>
		<path style="fill:#FF9988;" d="M353.697,106.18c0.838,8.076,0.511,13.4-0.407,21.467c5.619-0.329,11.665,0.33,17.284,0
			c-0.249-5.346-0.512-7.287,0.3-12.577"/>
		<path style="fill:#FFAF9D;" d="M382.711,109.709c-1.493,6.32-8.671,10.228-15.681,8.576c-3.748-0.883-7.114-2.779-9.658-5.759
			c-5.487-6.426-6.505-15.405-3.911-23.076c1.797-5.314,7.413-9.05,13.627-8.64c7.16,0.473,13.274,5.727,15.137,11.9
			c0.558,1.849,0.787,3.764,0.922,5.675C383.395,101.88,383.618,105.871,382.711,109.709z"/>
		<g>
			
				<path style="fill:none;stroke:#321973;stroke-width:0.7247;stroke-linecap:round;stroke-linejoin:round;stroke-miterlimit:10;" d="
				M378.293,102.397c-0.586-1.651-1.052-2.638-1.594-4.302c-0.355-1.093-0.468-2.56,0.581-3.298c0.92-0.647,2.427-0.724,3.403-0.166
				"/>
			
				<path style="fill:none;stroke:#321973;stroke-width:0.7247;stroke-linecap:round;stroke-linejoin:round;stroke-miterlimit:10;" d="
				M367.824,94.932c1.027-1.01,3.322-1.07,4.268-0.104"/>
			
				<path style="fill:none;stroke:#321973;stroke-width:0.7247;stroke-linecap:round;stroke-linejoin:round;stroke-miterlimit:10;" d="
				M378.225,97.72c0.273,0.532,0.891,0.863,1.485,0.797c0.594-0.066,1.124-0.526,1.273-1.104"/>
			
				<path style="fill:none;stroke:#321973;stroke-width:0.7247;stroke-linecap:round;stroke-linejoin:round;stroke-miterlimit:10;" d="
				M371.487,97.592c-0.253,0.559-0.911,0.957-1.58,0.955c-0.669-0.001-1.306-0.401-1.529-0.96"/>
		</g>
		<path style="fill:#FF9988;" d="M370.575,127.218c0.153,2.43-3.527,7.004-8.28,7.004c-4.753,0-9.148-4.717-8.933-7.004
			c0.444-4.733,3.853-8.607,8.607-8.607C366.722,118.611,370.277,122.474,370.575,127.218z"/>
		<g>
			<path style="fill:#FFAF9D;" d="M352.885,95.677c-1.912,0.014-4.092,0.709-4.786,2.491c-0.179,0.46-0.242,0.96-0.24,1.454
				c0.012,2.174,1.338,4.249,3.222,5.334c1.884,1.086,4.247,1.216,6.308,0.523"/>
			
				<path style="fill:none;stroke:#E55C51;stroke-width:0.7247;stroke-linecap:round;stroke-linejoin:round;stroke-miterlimit:10;" d="
				M349.354,99.277c0.314-1.333,2.07-2.083,3.251-1.389"/>
			<circle style="fill:#321973;" cx="352.554" cy="103.18" r="1"/>
		</g>
		<g>
			<path style="fill:#321973;" d="M382.588,93.672c-3.029-0.833-5.417-2.788-7.542-5.102c-2.125-2.314-3.764-5.028-5.275-7.783
				c1.555-1.742,5.802-1.802,8.32,0.553C381.836,84.843,382.802,89.553,382.588,93.672z"/>
			<path style="fill:#321973;" d="M372.212,82.052c-0.495,4.102-6.165,7.063-8.656,10.36c-2.738,3.624-6.523,4.59-11.386,3.339
				c0,0-1.353,0.369-1.338-0.117c0.078-2.526,0.782-7.603,2.105-9.882c0.746-1.285,1.824-2.545,2.856-3.614
				C359.234,78.573,368.377,78.918,372.212,82.052z"/>
			<path style="fill:#321973;" d="M371.807,81.438c0.847,1.888,1.628,4.394,1.021,6.372c-0.525,1.712-1.816,3.142-3.398,3.981
				c-1.582,0.839-4.425,0.943-6.518,0.218C365.656,88.456,369.222,85.109,371.807,81.438z"/>
			<path style="fill:#321973;" d="M354.031,84.576c-4.258,0.488-8.976-1.856-10.256-5.946c-0.806-2.575-0.152-5.506,1.5-7.639
				c1.652-2.133,4.221-3.475,6.893-3.846c0.837-0.117,1.7-0.142,2.52,0.064c0.852,0.214,1.626,0.67,2.316,1.213
				c4.111,3.233,4.912,9.912,1.683,14.026"/>
			
				<path style="fill:none;stroke:#321973;stroke-width:0.7247;stroke-linecap:round;stroke-linejoin:round;stroke-miterlimit:10;" d="
				M369.35,80.608c2.013-1.738,5.062-2.03,7.504-0.98c2.443,1.051,4.264,3.302,5.097,5.827s0.945,4.681,0.275,7.254"/>
			
				<path style="fill:none;stroke:#321973;stroke-width:0.7247;stroke-linecap:round;stroke-linejoin:round;stroke-miterlimit:10;" d="
				M351.797,67.638c-2.698-0.292-5.479,0.958-7.168,3.082c-1.69,2.124-2.289,5.036-1.721,7.69c0.437,2.046,1.597,3.999,3.396,5.066
				c1.905,1.13,4.244,1.155,6.459,1.147"/>
			
				<path style="fill:none;stroke:#321973;stroke-width:0.7247;stroke-linecap:round;stroke-linejoin:round;stroke-miterlimit:10;" d="
				M362.47,91.631c2.613,1.318,5.967,1.544,8.471,0.048c2.505-1.496,3.722-4.909,2.202-7.321"/>
			
				<path style="fill:none;stroke:#321973;stroke-width:0.7247;stroke-linecap:round;stroke-linejoin:round;stroke-miterlimit:10;" d="
				M349.555,85.149c-3.66,0.224-7.296-2.399-8.237-5.943c-0.77-2.899,0.193-6.102,2.138-8.385c1.945-2.284,5.41-2.542,8.341-3.183"
				/>
			<path style="fill:#321973;" d="M352.893,94.992c0.148,1.665,0.297,3.331,0.445,4.996c1.214-2.535,2.665-4.997,4.115-7.405"/>
		</g>
		<g>
			<path style="fill:#FFFFFF;" d="M361.999,100.829c-0.427,1.404-0.87,7.564-1.031,9.658c2.295,2.899,7.091,7.976,9.18,8.053
				c2.919,0.107,5.359-0.062,7.767-1.715c6.124-4.204,5.766-15.73,5.157-16.766C376.263,101.619,368.808,99.261,361.999,100.829z"/>
			
				<path style="fill:none;stroke:#FFFFFF;stroke-width:0.9663;stroke-linecap:round;stroke-linejoin:round;stroke-miterlimit:10;" d="
				M352.284,95.002c3.625,1.991,7.236,4.006,10.834,6.045"/>
			
				<path style="fill:none;stroke:#FFFFFF;stroke-width:0.9663;stroke-linecap:round;stroke-linejoin:round;stroke-miterlimit:10;" d="
				M352.86,106.305c3.625,1.991,6.66,3.01,10.258,5.049"/>
			<path style="fill:none;stroke:#D3ECEF;stroke-linecap:round;stroke-linejoin:round;stroke-miterlimit:10;" d="M370.967,105.969
				c3.411,0.282,6.856,0.143,10.233-0.412"/>
			<path style="fill:none;stroke:#D3ECEF;stroke-linecap:round;stroke-linejoin:round;stroke-miterlimit:10;" d="M374.242,109.983
				c1.913,0.204,3.854,0.144,5.75-0.177"/>
		</g>
		<g>
			<path style="fill:#FFAF9D;" d="M334.47,201.586c0.269-12.007,0.383-24.028,0.732-35.972c0.083-2.842,0.079-10.686,0.079-10.686
				l-15.27-14.019c0,0-0.477,0.547-0.709,0.827c-2.52,3.038-4.505,6.551-5.373,10.112c-2.236,9.17-1.836,25.322-1.411,34.954
				c0.168,3.823,0.277,7.389,0.349,10.796"/>
			<path style="fill:#FF9988;" d="M335.2,161.909c-5.754-6.289-10.882-13.605-15.298-20.896c0,0,10.201,8.337,15.379,13.915
				C335.363,155.017,335.2,161.909,335.2,161.909z"/>
			<path style="fill:#FFAF9D;" d="M398.012,207.097c-20.051,3.711-73.954,5.317-77.757,3.239c-3.803-2.078-5.902-5.338-6.826-9.572
				c-0.903-4.135-0.509-10.403,3.111-12.595c3.62-2.192,8.227-2.092,12.309-0.972c4.081,1.121,12.255,1.942,16.413,2.733
				C355.895,191.954,392.012,190.097,398.012,207.097z"/>
		</g>
	</g>
	<path style="fill:#32A4F9;" d="M311.032,148.019c0.712,1.002,1.68,1.896,2.833,2.615c1.353,0.844,3.247,1.451,4.814,0.866
		c1.065-0.398,1.74-1.34,1.608-2.245c-0.131-0.905-3.303-2.761-6.115-2.886L311.032,148.019z"/>
	<g>
		<g>
			
				<line style="fill:none;stroke:#321973;stroke-width:0.7247;stroke-linecap:round;stroke-linejoin:round;stroke-miterlimit:10;" x1="308.179" y1="184.222" x2="314.137" y2="184.222"/>
			<rect x="306.471" y="182.888" style="fill:#00B4CA;" width="1.667" height="2.667"/>
			<polygon style="fill:#FFFFFF;" points="307.137,187.119 289.137,187.286 289.137,181.555 307.137,181.388 			"/>
			<rect x="296.387" y="182.409" style="fill:#00B4CA;" width="9.494" height="3.635"/>
		</g>
		<path style="fill:#32A4F9;" d="M283.892,184.702c1.381,0.099,2.761,0.198,4.142,0.296c1.809,0.13,4.317,0.031,5.77,0.973
			c1.453,0.942,1.539,3.218,0.298,4.365c-0.804,0.743-2.09,0.883-3.264,0.931c-2.402,0.098-4.813,0.005-7.195-0.279"/>
		<g>
			<path style="fill:#32A4F9;" d="M274.777,201.638c1.897,0.004,4.204,0.194,5.709,0.195c2.375,0,6.712-0.889,8.152-2.778
				c0.59-0.774,0.931-1.705,1.248-2.625c0.902-2.614-0.04-4.989-0.033-7.754c0.007-2.765-0.823-5.673-2.854-7.549
				c-2.342-2.163-7.246-1.879-12.553-1.612L274.777,201.638z"/>
			<path style="fill:#32A4F9;" d="M282.721,179.472c1.381,0.099,3.932-0.322,5.313-0.223c1.809,0.13,4.067-0.052,5.52,0.89
				c1.453,0.942,1.789,3.301,0.548,4.448c-0.804,0.743-2.09,0.883-3.264,0.931c-2.402,0.098-4.813,0.005-7.195-0.279"/>
			<path style="fill:#32A4F9;" d="M276.223,179.719c2.359-0.927,3.817-3.288,5.912-4.714c0.454-0.309,0.961-0.581,1.51-0.602
				c1.312-0.051,2.277,1.398,2.217,2.71c-0.059,1.312-0.823,2.472-1.561,3.558"/>
		</g>
	</g>
</g>
</svg>
