<?xml version="1.0" encoding="utf-8"?>
<!-- Generator: Adobe Illustrator 27.5.0, SVG Export Plug-In . SVG Version: 6.00 Build 0)  -->
<svg version="1.1" xmlns="http://www.w3.org/2000/svg" xmlns:xlink="http://www.w3.org/1999/xlink" x="0px" y="0px"
	 viewBox="0 0 500 500" style="enable-background:new 0 0 500 500;" xml:space="preserve">
<g id="BACKGROUND">
	<rect x="0" y="-0.608" style="fill-rule:evenodd;clip-rule:evenodd;fill:#7EDEE3;" width="500" height="500"/>
</g>
<g id="OBJECTS">
	<g>
		<path style="fill:#FFFFFF;" d="M0,160.071h105.862c0,0-42.835-6.851-46.399-10.178c-3.564-3.327-2.677-15.089-14.227-17.773
			c-11.55-2.684-8.568,3.386-15.869,1.093s-7.081-8.721-13.867-10.699c-6.786-1.978-15.5,0-15.5,0V160.071z"/>
		<path style="fill:#FFFFFF;" d="M277.965,95.311H500V84.216c0,0-21.13,0.326-30.266-4.242s-14.846-14.357-27.491-14.357
			c-12.645,0-13.908,6.2-22.576,1.632c-8.668-4.568-5.557-15.336-24.081-15.336c-18.523,0-14.191,2.61-25.004,12.4
			s-11.8,13.379-21.259,13.705c-9.459,0.326-2.51-2.937-13.979,3.263C323.875,87.479,277.965,95.311,277.965,95.311z"/>
		<g>
			<path style="fill:#6DBF60;" d="M194.175,146.149c-6.05-14.387-17.665-12.645-25.751-18.249
				c-8.087-5.604-7.483-19.202-11.913-31.947c-4.43-12.745-16.288-17.812-32.869-10.254c-16.58,7.559-5.951,32.306-4.65,50.49
				c1.301,18.184-14.168,20.063-13.554,36.487c0.307,8.211,8.134,17.182,15.885,24.102v0c0,0,9.113,9.721,7.269,17.34
				c-1.844,7.619-13.042,24.218-5.949,43.269c7.093,19.052,19.789,31.588,44.564,25.369c24.776-6.219,63.482-14.705,61.958-36.091
				c-1.524-21.386-14.732-24.075-24.296-35.949C179.423,179.12,208.392,179.957,194.175,146.149z"/>
			<path style="fill:#59A54C;" d="M158.454,185.387c1.749-2.898,14.769-24.819,24.855-51.07c-0.495-0.245-0.993-0.475-1.494-0.692
				c-9.131,23.798-20.711,44.049-24.031,49.672c-1.95-6.088-3.77-11.917-5.467-17.496c1.543-2.561,10.2-17.181,18.737-36.367
				c-0.492-0.244-0.976-0.506-1.45-0.786c-7.569,17.03-15.25,30.468-17.933,35.02c-1.637-5.42-3.159-10.602-4.571-15.551
				c1.215-2.012,7.95-13.337,15.342-28.943c-0.263-0.744-0.508-1.512-0.737-2.303c-6.635,14.189-12.879,25.093-15.223,29.067
				c-1.586-5.609-3.029-10.913-4.343-15.93c1.678-2.801,8.425-14.295,15.686-29.769c-0.217-0.801-0.449-1.602-0.696-2.402
				c-6.641,14.351-12.995,25.531-15.574,29.925c-1.367-5.285-2.587-10.241-3.676-14.885c1.484-2.477,7.139-12.099,13.58-25.354
				c-0.405-0.411-0.822-0.805-1.26-1.172c-5.59,11.544-10.618,20.383-12.86,24.204c-1.294-5.624-2.39-10.775-3.317-15.486
				c1.223-2.062,3.821-6.541,7.087-12.69c-0.578-0.082-1.169-0.139-1.771-0.174c-2.427,4.549-4.461,8.134-5.79,10.417
				c-0.666-3.495-1.234-6.734-1.72-9.734c-0.528,0.118-1.062,0.251-1.603,0.399c0.568,3.497,1.246,7.312,2.06,11.479
				c-0.059,0.099-0.126,0.21-0.173,0.289c-4.699-0.381-9.926-1.453-15.401-2.992c-0.26,0.485-0.493,0.986-0.703,1.502
				c5.875,1.667,11.484,2.816,16.488,3.172l0.181,0.013c0.943,4.711,2.049,9.844,3.349,15.437
				c-6.401-0.559-13.761-2.381-21.382-4.901c0.05,0.589,0.108,1.182,0.173,1.779c7.711,2.514,15.148,4.308,21.604,4.806
				c1.136,4.822,2.411,9.973,3.844,15.476c-6.859-0.599-14.819-2.649-23.021-5.453c0.112,0.615,0.222,1.228,0.329,1.84
				c8.257,2.777,16.254,4.777,23.133,5.302c1.328,5.054,2.788,10.4,4.389,16.047c-7.741-0.726-16.851-3.264-26.118-6.634
				c-0.047,0.573-0.109,1.133-0.192,1.671c9.523,3.443,18.882,6.009,26.792,6.658c1.459,5.111,3.034,10.466,4.733,16.077
				c-10.763-0.999-24.179-5.507-36.988-10.894c-0.335,0.453-0.672,0.902-1.011,1.349c13.326,5.625,27.366,10.345,38.515,11.243
				c1.728,5.673,3.581,11.604,5.569,17.801c-14.687-1.391-34.279-9.28-50.531-17.016c-0.113,0.542-0.2,1.107-0.271,1.687
				c16.563,7.854,36.505,15.816,51.348,17.031c1.969,6.111,4.065,12.475,6.301,19.108c0.329,0.975,0.657,1.945,0.985,2.911
				c-13.764-1.321-31.816-8.328-47.392-15.564c1.165,1.184,2.363,2.329,3.568,3.43c14.959,6.697,31.58,12.782,44.403,13.839
				c2.608,7.661,5.176,15.016,7.63,21.918c-13.006-1.234-29.896-7.537-44.917-14.315c-0.187,0.487-0.392,0.999-0.605,1.525
				c15.436,6.957,32.853,13.422,46.13,14.496c2.846,7.981,5.529,15.328,7.929,21.802c-17.444-1.626-41.846-12.457-59.34-21.311
				c-0.131,0.545-0.255,1.095-0.37,1.653c17.86,9.013,42.733,19.982,60.345,21.366c2.315,6.224,4.345,11.581,5.98,15.849
				c-20.084-1.427-48.487-13.547-66.788-22.338c0.108,0.665,0.242,1.336,0.39,2.009c18.683,8.907,47.068,20.852,67.047,22.021
				c0.354,0.919,0.682,1.771,0.99,2.567c0.529-0.153,1.058-0.309,1.586-0.465c-0.307-0.794-0.636-1.645-0.989-2.564
				c1.271-1.954,15.78-24.481,27.338-51.611c-0.429-0.385-0.863-0.767-1.3-1.147c-10.512,24.811-23.588,45.86-26.77,50.851
				c-1.651-4.311-3.702-9.723-6.041-16.015c1.919-3.192,12.857-21.734,22.315-44.764c-0.165-0.197-0.33-0.389-0.493-0.591
				c-0.236-0.293-0.458-0.578-0.685-0.866c-8.69,21.344-18.764,38.969-21.873,44.237c-2.363-6.379-4.991-13.584-7.777-21.398
				c1.553-2.597,11.136-18.886,20.117-39.86c-0.26-1.012-0.439-1.98-0.551-2.916c-8.315,19.844-17.432,35.889-20.284,40.757
				c-2.411-6.787-4.929-14.005-7.486-21.518c1.869-3.093,18.236-30.606,28.543-61.277c-0.221-0.566-0.452-1.139-0.698-1.725
				c-0.086-0.205-0.177-0.395-0.266-0.594c-9.402,28.779-24.501,55.164-28.275,61.548c-0.278-0.819-0.555-1.64-0.834-2.466
				C162.548,197.952,160.436,191.54,158.454,185.387z"/>
		</g>
		<g>
			<path style="fill:#6DBF60;" d="M73.017,237.627c-8.603-8.273-16.233-3.535-23.608-5.023
				c-7.375-1.488-11.066-11.221-18.034-18.831s-16.83-7.58-26.187,2.746c-9.357,10.326,5.598,24.49,12.014,36.866
				c6.417,12.377-3.878,18.378,1.524,29.727c2.7,5.673,10.912,9.605,18.45,12.119h0c0,0,9.342,4.069,10.352,9.978
				c1.01,5.909-1.83,20.955,8.917,32.188c10.747,11.233,23.457,16.195,38.975,4.33c15.518-11.865,40.133-29.539,32.591-44.097
				c-7.542-14.558-17.632-12.449-27.942-17.894C72.634,265.247,93.232,257.068,73.017,237.627z"/>
			<path style="fill:#59A54C;" d="M59.805,275.994c0.351-2.564,2.861-21.9,2-43.388c-0.421-0.022-0.841-0.033-1.259-0.034
				c0.789,19.477-1.215,37.204-1.845,42.157c-3.212-3.686-6.254-7.229-9.134-10.633c0.308-2.266,1.964-15.153,2.153-31.211
				c-0.42-0.023-0.838-0.06-1.256-0.113c-0.162,14.251-1.489,26.013-1.996,30.022c-2.79-3.311-5.427-6.49-7.917-9.538
				c0.244-1.781,1.547-11.773,2.015-24.97c-0.41-0.443-0.814-0.908-1.215-1.394c-0.366,11.973-1.451,21.52-1.895,25.021
				c-2.811-3.459-5.43-6.747-7.871-9.874c0.331-2.475,1.591-12.589,2.007-25.654c-0.395-0.497-0.8-0.989-1.216-1.476
				c-0.321,12.089-1.399,21.863-1.881,25.73c-2.559-3.298-4.916-6.409-7.086-9.341c0.293-2.189,1.352-10.658,1.864-21.916
				c-0.409-0.166-0.821-0.317-1.239-0.442c-0.432,9.799-1.288,17.529-1.706,20.89c-2.611-3.558-4.94-6.844-7.016-9.872
				c0.235-1.818,0.704-5.75,1.137-11.057c-0.431,0.117-0.863,0.256-1.297,0.414c-0.328,3.93-0.672,7.062-0.913,9.068
				c-1.525-2.253-2.905-4.356-4.154-6.316c-0.335,0.243-0.67,0.498-1.005,0.765c1.457,2.284,3.088,4.758,4.921,7.438
				c-0.012,0.088-0.025,0.186-0.034,0.255c-3.415,1.155-7.411,1.983-11.722,2.56c-0.036,0.419-0.048,0.841-0.039,1.267
				c4.631-0.608,8.917-1.498,12.539-2.762l0.131-0.046c2.087,3.023,4.418,6.293,7.024,9.828c-4.665,1.545-10.385,2.492-16.5,3.029
				c0.213,0.398,0.433,0.797,0.66,1.197c6.176-0.568,11.942-1.559,16.627-3.162c2.257,3.043,4.712,6.275,7.383,9.705
				c-4.999,1.655-11.209,2.624-17.818,3.137c0.265,0.398,0.527,0.796,0.788,1.192c6.64-0.549,12.861-1.564,17.851-3.277
				c2.462,3.148,5.105,6.46,7.938,9.941c-5.656,1.833-12.822,2.808-20.35,3.245c0.14,0.417,0.266,0.829,0.371,1.232
				c7.73-0.464,15.079-1.494,20.831-3.432c2.572,3.148,5.298,6.432,8.189,9.858c-7.861,2.555-18.648,3.45-29.274,3.543
				c-0.098,0.419-0.199,0.837-0.302,1.254c11.061-0.083,22.35-1.017,30.452-3.76c2.93,3.462,6.027,7.066,9.298,10.816
				c-10.736,3.468-26.882,3.857-40.638,3.342c0.085,0.415,0.194,0.838,0.32,1.267c14.009,0.503,30.424,0.06,41.216-3.579
				c3.232,3.696,6.63,7.531,10.208,11.513c0.526,0.585,1.05,1.167,1.573,1.746c-10.066,3.238-24.865,3.78-37.994,3.411
				c1.177,0.479,2.365,0.92,3.544,1.329c12.533,0.176,26.047-0.581,35.372-3.718c4.15,4.591,8.179,8.979,11.991,13.084
				c-9.507,3.07-23.277,3.755-35.878,3.54c0.016,0.398,0.027,0.82,0.037,1.254c12.946,0.215,27.135-0.516,36.784-3.78
				c4.414,4.744,8.522,9.092,12.167,12.912c-12.743,4.137-33.158,3.916-48.124,2.992c0.073,0.422,0.152,0.846,0.24,1.273
				c15.271,0.925,36.059,1.1,48.846-3.257c3.509,3.671,6.556,6.818,8.996,9.321c-14.537,5.076-38.152,5.16-53.665,4.524
				c0.277,0.435,0.574,0.865,0.882,1.293c15.816,0.601,39.367,0.4,53.751-4.826c0.526,0.539,1.015,1.037,1.472,1.503
				c0.325-0.268,0.649-0.537,0.973-0.807c-0.456-0.465-0.944-0.963-1.471-1.501c0.302-1.757,3.674-21.968,3.58-44.52
				c-0.418-0.141-0.838-0.277-1.26-0.412c0.126,20.606-2.687,39.346-3.411,43.814c-2.464-2.528-5.543-5.708-9.089-9.419
				c0.382-2.823,2.452-19.155,2.125-38.191c-0.175-0.088-0.35-0.173-0.525-0.266c-0.255-0.135-0.497-0.267-0.743-0.401
				c0.357,17.62-1.385,33.047-1.974,37.687c-3.59-3.765-7.617-8.029-11.938-12.674c0.305-2.294,2.105-16.633,2.065-34.082
				c-0.489-0.632-0.907-1.258-1.27-1.881c0.166,16.453-1.381,30.48-1.911,34.762c-3.747-4.037-7.7-8.344-11.77-12.847
				c0.376-2.738,3.545-27.013,1.501-51.673c-0.326-0.33-0.662-0.663-1.012-1c-0.123-0.118-0.244-0.224-0.366-0.337
				c2.106,23.056-0.512,46.157-1.231,51.782c-0.443-0.491-0.887-0.984-1.332-1.479C66.482,283.58,63.058,279.716,59.805,275.994z"/>
		</g>
		<g>
			<path style="fill:#6DBF60;" d="M439.688,233.143c3.59-12.503-4.861-17.442-7.183-25.306c-2.322-7.864,5.176-16.378,8.961-26.968
				s-1.267-20.077-15.982-23.835c-14.715-3.757-20.747,17.866-29.405,30.352c-8.658,12.486-19.684,5.622-27.868,16.607
				c-4.092,5.491-3.698,15.407-2.281,23.95l0,0c0,0,0.836,11.074-4.342,15.057c-5.179,3.983-21.124,8.909-26.474,24.985
				c-5.351,16.076-3.659,30.851,15.677,39.76c19.336,8.91,48.902,23.628,59.089,8.946c10.187-14.682,3.016-23.33,3.012-36.037
				C412.88,246.84,431.251,262.523,439.688,233.143z"/>
			<path style="fill:#59A54C;" d="M395.989,239.952c2.65-0.968,22.559-8.397,42.827-20.17c-0.193-0.417-0.396-0.827-0.608-1.23
				c-18.365,10.68-36.467,17.777-41.561,19.692c1.916-4.972,3.78-9.708,5.594-14.217c2.34-0.857,15.601-5.825,31.17-13.82
				c-0.192-0.416-0.369-0.839-0.531-1.268c-13.814,7.102-25.824,11.813-29.945,13.366c1.769-4.375,3.489-8.535,5.159-12.486
				c1.84-0.672,12.132-4.505,25.087-10.775c0.218-0.621,0.46-1.247,0.725-1.88c-11.723,5.745-21.475,9.562-25.075,10.917
				c1.901-4.47,3.736-8.668,5.505-12.613c2.553-0.942,12.941-4.879,25.742-11.131c0.278-0.634,0.546-1.275,0.803-1.924
				c-11.812,5.847-21.779,9.786-25.751,11.291c1.874-4.145,3.672-8.001,5.392-11.585c2.258-0.832,10.958-4.125,22.067-9.365
				c-0.048-0.479-0.113-0.952-0.205-1.419c-9.663,4.574-17.546,7.686-20.998,8.995c2.099-4.328,4.079-8.245,5.939-11.788
				c1.871-0.7,5.899-2.25,11.233-4.536c-0.332-0.355-0.686-0.701-1.059-1.039c-3.953,1.685-7.147,2.95-9.203,3.738
				c1.394-2.617,2.718-5.017,3.97-7.219c-0.404-0.199-0.821-0.392-1.249-0.578c-1.459,2.567-3.012,5.399-4.661,8.53
				c-0.09,0.033-0.191,0.071-0.263,0.097c-2.852-2.703-5.685-6.131-8.436-9.992c-0.422,0.179-0.835,0.382-1.241,0.607
				c2.944,4.153,5.984,7.83,9.048,10.676l0.111,0.103c-1.85,3.551-3.814,7.463-5.892,11.773c-3.864-3.708-7.69-8.738-11.322-14.356
				c-0.275,0.408-0.548,0.823-0.818,1.246c3.693,5.662,7.584,10.714,11.515,14.411c-1.783,3.724-3.647,7.736-5.592,12.057
				c-4.14-3.974-8.237-9.464-12.097-15.571c-0.249,0.458-0.498,0.913-0.747,1.367c3.91,6.118,8.057,11.596,12.249,15.532
				c-1.779,3.975-3.625,8.209-5.536,12.712c-4.647-4.517-9.236-10.925-13.491-17.956c-0.33,0.348-0.663,0.679-0.998,0.984
				c4.384,7.212,9.119,13.769,13.916,18.325c-1.724,4.081-3.5,8.381-5.329,12.912c-6.466-6.274-12.821-16.212-18.323-26.403
				c-0.454,0.119-0.908,0.234-1.361,0.348c5.713,10.616,12.362,21.018,19.132,27.427c-1.843,4.586-3.739,9.405-5.687,14.468
				c-8.809-8.579-17.407-23.939-23.916-37.455c-0.357,0.293-0.708,0.614-1.057,0.954c6.65,13.755,15.437,29.346,24.439,37.892
				c-1.915,4.997-3.88,10.224-5.895,15.7c-0.296,0.805-0.59,1.606-0.882,2.405c-8.247-8.05-16.305-22.034-22.636-34.872
				c0.138,1.378,0.317,2.747,0.524,4.092c6.213,12.166,13.824,24.802,21.597,32.19c-2.31,6.337-4.487,12.454-6.5,18.218
				c-7.799-7.598-15.472-20.517-21.683-32.768c-0.376,0.218-0.776,0.444-1.19,0.674c6.386,12.584,14.317,25.883,22.375,33.519
				c-2.323,6.669-4.421,12.841-6.246,18.299c-10.476-10.172-20.66-29.956-27.391-44.848c-0.37,0.286-0.738,0.578-1.104,0.88
				c6.886,15.185,17.304,35.306,28.014,45.408c-1.75,5.251-3.231,9.79-4.4,13.416c-12.294-11.423-24.402-34.135-31.69-49.406
				c-0.277,0.488-0.541,0.994-0.797,1.509c7.476,15.546,19.663,38.137,32.024,49.336c-0.251,0.782-0.483,1.506-0.699,2.184
				c0.424,0.177,0.848,0.352,1.273,0.527c0.216-0.676,0.447-1.4,0.698-2.182c1.847-0.604,23.039-7.648,44.722-19.223
				c-0.077-0.474-0.16-0.949-0.245-1.424c-19.791,10.616-39.281,17.449-43.955,19.026c1.181-3.662,2.677-8.248,4.447-13.555
				c2.914-1.07,19.706-7.393,37.882-17.402c-0.004-0.214-0.011-0.425-0.011-0.641c0-0.314,0.005-0.615,0.008-0.92
				c-16.796,9.317-32.548,15.496-37.32,17.292c1.799-5.376,3.858-11.428,6.133-17.957c2.366-0.875,17.1-6.442,33.892-15.368
				c0.36-0.793,0.75-1.515,1.166-2.182c-15.769,8.539-30.073,14.192-34.469,15.862c1.982-5.666,4.119-11.669,6.385-17.884
				c2.83-1.032,27.834-10.342,50.555-24.869c0.152-0.483,0.302-0.976,0.448-1.485c0.051-0.178,0.091-0.349,0.138-0.525
				c-21.144,13.772-44.736,23.013-50.522,25.185c0.248-0.677,0.496-1.355,0.747-2.037
				C392.081,250.249,394.06,244.982,395.989,239.952z"/>
		</g>
		<g>
			<path style="fill:#6DBF60;" d="M305.878,202.818c1.364-12.936-7.817-16.332-11.47-23.674c-3.653-7.342,2.253-17.028,4.14-28.115
				c1.887-11.086-4.735-19.552-19.879-20.696c-15.144-1.144-17.328,21.198-23.686,34.998c-6.358,13.801-18.408,8.956-24.56,21.195
				c-3.076,6.118-0.966,15.815,1.914,23.982l0,0c0,0,2.747,10.76-1.661,15.582c-4.408,4.822-19.255,12.442-21.732,29.204
				c-2.477,16.761,1.755,31.017,22.345,36.433s52.263,14.774,59.744-1.454c7.482-16.228-1.082-23.5-3.293-36.013
				C281.857,220.964,302.673,233.217,305.878,202.818z"/>
			<path style="fill:#59A54C;" d="M264.027,217.113c2.442-1.413,20.758-12.188,38.672-27.302c-0.263-0.377-0.534-0.746-0.813-1.106
				c-16.231,13.708-32.825,23.841-37.509,26.612c1.023-5.229,2.037-10.217,3.039-14.972c2.156-1.25,14.353-8.446,28.296-19.025
				c-0.261-0.376-0.509-0.762-0.743-1.157c-12.371,9.393-23.379,16.119-27.168,18.364c0.982-4.616,1.954-9.011,2.912-13.192
				c1.696-0.981,11.165-6.543,22.834-14.969c0.107-0.649,0.236-1.308,0.387-1.978c-10.547,7.694-19.488,13.147-22.797,15.107
				c1.096-4.732,2.174-9.186,3.231-13.377c2.351-1.371,11.897-7.052,23.417-15.433c0.163-0.672,0.316-1.35,0.457-2.034
				c-10.617,7.81-19.749,13.42-23.398,15.592c1.126-4.408,2.226-8.517,3.298-12.346c2.079-1.212,10.075-5.966,20.105-13.056
				c-0.13-0.463-0.277-0.918-0.449-1.362c-8.721,6.183-15.945,10.617-19.117,12.506c1.315-4.627,2.585-8.828,3.801-12.641
				c1.721-1.014,5.419-3.241,10.274-6.418c-0.389-0.292-0.798-0.571-1.224-0.839c-3.601,2.346-6.526,4.146-8.414,5.28
				c0.919-2.82,1.805-5.413,2.656-7.799c-0.433-0.126-0.876-0.243-1.331-0.353c-0.991,2.782-2.028,5.84-3.109,9.21
				c-0.083,0.049-0.176,0.103-0.242,0.141c-3.278-2.166-6.664-5.05-10.043-8.374c-0.385,0.25-0.756,0.521-1.117,0.814
				c3.62,3.578,7.254,6.671,10.765,8.942l0.127,0.082c-1.205,3.818-2.46,8.012-3.758,12.618c-4.449-2.98-9.091-7.269-13.643-12.171
				c-0.2,0.45-0.396,0.906-0.589,1.369c4.62,4.934,9.33,9.233,13.843,12.191c-1.109,3.977-2.247,8.251-3.413,12.845
				c-4.768-3.194-9.756-7.889-14.618-13.233c-0.165,0.494-0.332,0.986-0.499,1.476c4.914,5.346,9.949,10.02,14.761,13.168
				c-1.061,4.224-2.144,8.714-3.244,13.481c-5.361-3.641-10.993-9.155-16.405-15.34c-0.265,0.4-0.535,0.783-0.812,1.143
				c5.57,6.341,11.372,11.976,16.888,15.629c-0.988,4.319-1.991,8.861-3.005,13.641c-7.457-5.055-15.442-13.738-22.63-22.819
				c-0.427,0.196-0.854,0.389-1.281,0.579c7.47,9.463,15.825,18.551,23.605,23.687c-1.018,4.837-2.048,9.912-3.087,15.236
				c-10.165-6.918-21.301-20.551-30.059-32.732c-0.3,0.351-0.591,0.728-0.876,1.123c8.938,12.391,20.3,26.219,30.65,33.071
				c-1.018,5.253-2.045,10.743-3.078,16.485c-0.152,0.844-0.302,1.684-0.451,2.521c-9.52-6.496-19.885-18.867-28.35-30.41
				c0.375,1.333,0.79,2.65,1.227,3.939c8.231,10.902,17.923,22.024,26.861,27.949c-1.174,6.642-2.255,13.044-3.237,19.07
				c-9.001-6.128-18.801-17.518-27.045-28.503c-0.332,0.28-0.688,0.572-1.055,0.871c8.475,11.283,18.595,23.003,27.857,29.123
				c-1.129,6.971-2.123,13.414-2.972,19.106c-12.084-8.198-25.549-25.912-34.765-39.408c-0.314,0.345-0.626,0.697-0.935,1.058
				c9.419,13.758,23.173,31.764,35.476,39.852c-0.811,5.475-1.482,10.202-2.003,13.976c-14.092-9.113-29.96-29.378-39.79-43.151
				c-0.188,0.529-0.36,1.073-0.522,1.624c10.062,14.011,25.989,34.141,40.107,43.023c-0.111,0.813-0.214,1.567-0.309,2.272
				c0.448,0.101,0.896,0.2,1.345,0.297c0.095-0.703,0.197-1.456,0.308-2.27c1.714-0.916,21.36-11.534,40.703-26.699
				c-0.159-0.454-0.322-0.907-0.489-1.36c-17.646,13.892-35.653,24.007-39.982,26.372c0.527-3.811,1.204-8.588,2.025-14.121
				c2.684-1.56,18.122-10.703,34.283-23.718c-0.041-0.21-0.085-0.417-0.122-0.63c-0.055-0.309-0.102-0.606-0.152-0.908
				c-14.923,12.093-29.362,20.914-33.749,23.511c0.838-5.607,1.814-11.925,2.92-18.75c2.178-1.273,15.721-9.315,30.707-21.021
				c0.217-0.843,0.476-1.623,0.77-2.351c-14.046,11.149-27.151,19.2-31.19,21.608c0.967-5.924,2.029-12.207,3.181-18.721
				c2.608-1.508,25.615-15.02,45.467-33.273c0.066-0.502,0.128-1.013,0.184-1.54c0.02-0.184,0.029-0.36,0.044-0.54
				c-18.43,17.235-40.059,30.434-45.38,33.578c0.126-0.71,0.254-1.421,0.382-2.135C261.966,227.933,263.001,222.403,264.027,217.113
				z"/>
		</g>
		<g>
			<g>
				<path style="fill:#589C52;" d="M156.873,272.206c-0.157,0.574-16.616-1.932-16.616-1.932s-10.607-22.003-9.906-46.102
					c0.701-24.099,4.755-36.322,4.755-36.322S166.38,237.39,156.873,272.206z"/>
				<path style="fill:#83C59E;" d="M157.569,269.263c0.153-0.747,0.291-1.5,0.411-2.258c-1.066-6.254-2.895-16.306-5.353-27.361
					c-3.133-14.095-7.855-32.26-13.64-45.09c-2.318-4.228-3.881-6.706-3.881-6.706s-0.209,0.632-0.538,1.879
					c-0.628,8.961-2.525,47.73,8.486,80.96c0.275,0.04,0.564,0.082,0.866,0.126c-10.683-31.911-9.328-69.12-8.651-79.878
					l11.52,80.284c0.266,0.037,0.534,0.074,0.804,0.111l-11.003-76.68c3.96,17.146,12.605,55.184,16.58,77.385
					c0.279,0.031,0.547,0.059,0.803,0.086c-4.218-23.636-13.766-65.337-17.316-80.642c6.494,12.765,11.794,32.971,15.208,48.328
					C154.621,252.21,156.585,263.349,157.569,269.263z"/>
			</g>
			<g>
				<path style="fill:#589C52;" d="M130.581,269.051c0,0-12.526-18.441-25.557-24.343c-13.031-5.902-23.29-7.367-23.29-7.367
					s4.651,16.024,16.71,27.054c12.06,11.03,29.949,15.263,29.949,15.263L130.581,269.051z"/>
				<path style="fill:#83C59E;" d="M128.693,278.206c-32.354-15.462-43.411-34.356-45.965-39.596l46.641,36.316l0.174-0.845
					l-45.14-35.154c17.232,7.943,39.413,26.011,45.904,31.446l0.179-0.867c-7.082-5.911-29.841-24.336-47.056-31.866
					c-1.093-0.213-1.698-0.3-1.698-0.3s0.368,1.267,1.164,3.333c1.424,2.612,3.978,6.645,8.244,11.468
					c6.426,7.266,18.033,17.634,37.388,26.856L128.693,278.206z"/>
			</g>
			<g>
				<path style="fill:#83C59E;" d="M145.865,278.262c0,0-0.864-24.612-12.31-36.596c-11.446-11.983-39.788-37.506-39.788-37.506
					s0.677,19.614,10.832,43.458c10.154,23.844,34.5,35.519,34.5,35.519L145.865,278.262z"/>
				<path style="fill:#589C52;" d="M145.29,272.004c-0.097-0.755-0.211-1.562-0.343-2.412
					c-13.012-25.303-34.932-49.415-45.238-60.04c-3.601-3.282-5.943-5.391-5.943-5.391s0.031,0.849,0.166,2.389
					c1.487,6.074,5.908,22.884,11.878,34.479c7.694,14.942,25.286,33.876,33.29,42.107l0.639-0.461
					c-7.938-8.156-25.56-27.097-33.236-42.003c-5.256-10.209-9.311-24.518-11.197-31.853c5.207,11.916,20.95,45.191,45.392,73.165
					l0.636-0.458c-25.911-29.632-42.03-65.264-46.154-74.967c30.765,38.719,44.098,64.883,48.107,73.561l0.643-0.464
					c-3.999-8.628-16.792-33.64-45.746-70.551C108.251,219.387,132.083,245.229,145.29,272.004z"/>
			</g>
		</g>
		<g>
			<g>
				<path style="fill:#589C52;" d="M420.107,316.149c-0.478,0.306-10.526-11.983-10.526-11.983s6.549-22.349,22.44-38.958
					c15.891-16.609,26.569-22.67,26.569-22.67S449.078,297.581,420.107,316.149z"/>
				<path style="fill:#83C59E;" d="M422.48,314.511c0.586-0.431,1.164-0.875,1.733-1.336c3.24-5.108,8.368-13.39,13.691-22.785
					c6.786-11.977,15.049-27.85,19.15-40.627c1.06-4.473,1.537-7.225,1.537-7.225s-0.552,0.314-1.581,0.986
					c-6.169,5.941-32.279,32.168-45.714,62.722c0.169,0.204,0.346,0.418,0.533,0.642c12.824-29.41,37.553-54.88,44.906-62.062
					L413.6,309.01c0.165,0.196,0.331,0.393,0.498,0.592l41.198-61.301c-8.15,14.665-26.332,47.11-37.701,65.363
					c0.178,0.2,0.349,0.391,0.514,0.574c12.114-19.423,31.996-55.038,39.261-68.138c-3.559,13.183-12.715,30.87-20.109,43.92
					C431.288,300.559,425.562,309.697,422.48,314.511z"/>
			</g>
			<g>
				<path style="fill:#589C52;" d="M466.166,335.663c19.806-6.735,33.064-14.896,33.064-14.896s-17.283-10.096-39.699-8.862
					s-46.768,13.956-46.768,13.956l5.187,11.546C417.95,337.406,446.36,342.398,466.166,335.663z"/>
				<path style="fill:#83C59E;" d="M413.473,327.44c49.769-15.998,76.766-9.242,83.645-6.895l-82.04,10.465l0.413,0.92
					l79.405-10.122c-26.293,8.783-65.895,13.045-77.591,14.159l0.424,0.944c12.748-1.232,53.298-5.707,79.267-14.846
					c1.455-0.818,2.236-1.299,2.236-1.299s-1.366-0.798-3.828-1.918c-3.608-1.031-9.601-2.293-18.206-2.685
					c-12.964-0.59-34.357,0.819-64.11,10.415L413.473,327.44z"/>
			</g>
			<g>
				<path style="fill:#83C59E;" d="M417.798,323.173c0,0,23.231,3.412,36.434-5.266c13.203-8.678,42.003-30.881,42.003-30.881
					s-18.511-2.73-42.617,2.702c-24.105,5.432-39.231,26.262-39.231,26.262L417.798,323.173z"/>
				<path style="fill:#589C52;" d="M423.766,323.709c0.725,0.038,1.502,0.07,2.321,0.092c25.964-7.863,52.339-24.283,64.072-32.126
					c3.696-2.814,6.076-4.648,6.076-4.648s-0.802-0.117-2.269-0.254c-5.952,0.353-22.476,1.614-34.375,5.224
					c-15.334,4.653-36.11,17.903-45.203,23.997l0.322,0.679c9.012-6.045,29.799-19.323,45.096-23.965
					c10.477-3.178,24.593-4.526,31.795-5.036c-12.069,2.839-45.978,11.895-76.408,30.019l0.321,0.675
					c32.237-19.217,68.421-28.221,78.229-30.424c-41.592,22.21-68.418,30.226-77.245,32.497l0.324,0.683
					c8.778-2.27,34.431-9.977,74.017-30.799C479.469,297.998,451.144,315.915,423.766,323.709z"/>
			</g>
		</g>
		<g>
			<path style="fill-rule:evenodd;clip-rule:evenodd;fill:#417095;" d="M500,489.682c0-138.071-111.929-250-250-250
				S0,351.611,0,489.682c0,3.663,0.096,7.302,0.252,10.926h499.497C499.904,496.984,500,493.344,500,489.682z"/>
			<g>
				<path style="fill:#91C3DA;" d="M322.352,283.564c-1.528,0.997-2.916,2.367-3.424,4.08c-0.621,1.692-0.051,3.527,0.885,5.003
					c0.928,1.523,2.306,2.744,3.655,3.937c0.724,0.537,1.446,1.078,2.191,1.583c0.798,0.42,1.548,0.93,2.382,1.279
					c3.275,1.528,6.885,2.294,10.522,2.548c3.645,0.215,7.34,0,10.969-0.688c-1.763,0.565-3.594,0.903-5.431,1.169
					c-1.845,0.217-3.706,0.324-5.572,0.292c-3.728-0.075-7.484-0.834-10.916-2.411c-3.414-1.607-6.454-4.063-8.463-7.316
					c-0.467-0.833-0.833-1.741-0.987-2.702c-0.097-0.473-0.049-0.973-0.053-1.453c0.109-0.474,0.134-0.969,0.356-1.405
					c0.333-0.909,0.937-1.676,1.604-2.328C320.741,284.497,321.517,283.962,322.352,283.564z"/>
				<path style="fill:#91C3DA;" d="M319.584,280.544c-2.529,0.911-4.981,2.22-6.786,4.172c-0.913,0.954-1.603,2.106-1.959,3.349
					c-0.366,1.245-0.311,2.576-0.008,3.833c0.645,2.528,2.159,4.794,3.886,6.803c1.731,2.023,3.739,3.794,5.971,5.238
					c2.225,1.453,4.649,2.6,7.173,3.467c2.529,0.86,5.159,1.407,7.809,1.801c2.656,0.374,5.348,0.523,8.04,0.488
					c2.694-0.011,5.39-0.216,8.064-0.623c-5.281,1.198-10.78,1.474-16.199,0.904c-5.411-0.587-10.788-2.223-15.436-5.195
					c-2.294-1.519-4.36-3.385-6.119-5.49c-0.891-1.042-1.695-2.167-2.398-3.358c-0.717-1.182-1.249-2.496-1.542-3.868
					c-0.283-1.369-0.293-2.836,0.153-4.182c0.436-1.343,1.219-2.552,2.214-3.51C314.45,282.461,316.98,281.245,319.584,280.544z"/>
				<path style="fill:#91C3DA;" d="M348.339,281.928c2.627,0.17,5.232,0.662,7.774,1.414c2.529,0.761,5.05,1.81,7.133,3.627
					c1.013,0.921,1.888,2.108,2.22,3.517c0.256,1.412,0.211,2.769-0.187,4.109c-0.387,1.321-1.135,2.54-2.162,3.428
					c-1.033,0.871-2.247,1.515-3.542,1.773c2.438-0.935,4.454-2.936,4.955-5.397c0.139-0.608,0.174-1.233,0.205-1.855
					c-0.034-0.629-0.04-1.264-0.195-1.83c-0.3-1.158-1.04-2.174-1.97-2.999c-1.87-1.671-4.286-2.73-6.7-3.641
					c-1.215-0.456-2.462-0.837-3.721-1.182C350.895,282.519,349.621,282.22,348.339,281.928z"/>
				<path style="fill:#91C3DA;" d="M303.1,289.395c-0.295,1.136-0.535,2.278-0.608,3.436c-0.079,0.572-0.066,1.153-0.105,1.726
					c0.017,0.575,0.037,1.149,0.078,1.718c0.238,2.265,0.87,4.499,2.121,6.387c0.269,0.495,0.668,0.907,0.995,1.366
					c0.18,0.217,0.326,0.464,0.532,0.658l0.615,0.588c0.422,0.378,0.774,0.839,1.255,1.152c0.466,0.331,0.924,0.672,1.382,1.02
					c0.439,0.377,0.974,0.608,1.47,0.901l1.518,0.847c1.055,0.483,2.137,0.915,3.204,1.424c-1.134-0.291-2.262-0.634-3.399-0.971
					l-1.617-0.737c-0.533-0.26-1.103-0.458-1.589-0.81c-2.084-1.178-3.876-2.885-5.217-4.905c-1.326-2.046-1.98-4.484-2.039-6.876
					C301.644,293.922,302.11,291.53,303.1,289.395z"/>
			</g>
			<path style="fill-rule:evenodd;clip-rule:evenodd;fill:#30567E;" d="M264.822,397.234C164,397.234,76.25,438.993,30.867,500.608
				h467.911C453.395,438.993,365.644,397.234,264.822,397.234z"/>
			<path style="fill-rule:evenodd;clip-rule:evenodd;fill:#67BF58;" d="M251.802,486.213c-5.463-6.909-4.017-10.765-13.175-14.46
				c-9.158-3.695-19.602,1.446-26.992,10.283c-7.391,8.836-6.587,6.426-11.729,13.657c-1.252,1.76-2.036,3.406-2.512,4.915h64.626
				C259.586,495.447,256.153,491.715,251.802,486.213z"/>
			<g>
				<path style="fill-rule:evenodd;clip-rule:evenodd;fill:#72C764;" d="M392.679,284.39c-0.645,0.158-1.281,0.324-1.9,0.505
					c-25.225,7.391-18.401,25.001-8.279,40.907c10.122,15.906-7.232,23.189-11.409,42.951c-4.177,19.763,3.621,6.277,8.12,22.665
					c4.499,16.388-0.321,17.031-10.925,26.029c-10.604,8.997-17.352,9.319-24.422,17.995c-7.069,8.676-7.391,17.352-2.892,26.029
					c4.499,8.676,19.923,7.712,36.311,17.031c9.153,5.205,14.096,14.719,16.676,22.106h105.788
					c0.156-3.624,0.252-7.263,0.252-10.926C500,404.654,457.541,329.553,392.679,284.39z M8.329,425.51
					c6.69,10.847,19.837,24.842,43.762,26.964c39.846,3.535,41.613-11.889,58.001-0.161c16.388,11.729,26.992,26.511,47.397,6.427
					c20.405-20.084,44.827-84.833,81.138-111.826c36.311-26.992,50.932-17.995,51.253-40.167
					c0.321-22.172-7.712-29.723,1.607-42.416c7.091-9.658,12.135-12.434,14.708-18.305c-18.063-4.149-36.873-6.344-56.195-6.344
					C134.115,239.682,36.661,318.536,8.329,425.51z"/>
			</g>
			<ellipse style="fill:#67BF58;" cx="120.25" cy="386.311" rx="39.524" ry="16.166"/>
			<ellipse style="fill:#67BF58;" cx="189.825" cy="286.513" rx="45.527" ry="13.284"/>
			<path style="fill:#67BF58;" d="M386.527,297.78c0,0-13.182-0.165-8.689,10.237c4.494,10.402,22.446,29.193,38.385,32.717
				c15.939,3.523,22.65-1.342,17.784-11.073C429.143,319.93,386.527,297.78,386.527,297.78z"/>
			<g>
				<path style="fill-rule:evenodd;clip-rule:evenodd;fill:#FFFFFF;" d="M354.453,252.76c0,0-0.763,1.526,0.08,2.651
					c0.655,0.874,7.509-0.177,8.315-4.418c0.798-4.197-5.352-19.562-7.046-23.68c-0.198,1.314-1.916,1.783-2.491,2.696
					c1.293,4.664,4.819,14.228,4.878,16.967C358.269,250.752,354.453,252.76,354.453,252.76z"/>
				<path style="fill-rule:evenodd;clip-rule:evenodd;fill:#4E4E4E;" d="M392.914,279.112c-2.972,2.571-11.809,6.748-13.898,12.291
					c-2.089,5.543-2.893,20.083,10.844,30.447c13.737,10.363,37.195,13.255,43.622,10.604c6.427-2.651,8.275-19.602,8.194-26.591
					c-0.08-6.989-1.366-18.236-4.901-29.001c-3.535-10.765-1.526-14.701-0.402-20.566c1.125-5.864-0.065-9.383-0.065-9.383
					l-40.503,16.854c0,0,0.08,1.044,0.964,5.463C397.654,273.649,395.887,276.542,392.914,279.112z"/>
				<path style="fill-rule:evenodd;clip-rule:evenodd;fill:#363636;" d="M435.652,245.372c-2.33-1.848-10.684-0.723-18.477,2.41
					c-7.792,3.133-17.031,10.122-17.191,10.524c-0.161,0.402-0.322,5.483-0.322,5.483s11.89,1.265,23.217-3.957
					C434.206,254.61,437.982,247.219,435.652,245.372z"/>
				<path style="fill-rule:evenodd;clip-rule:evenodd;fill:#F2CF8E;" d="M402.715,256.037c-2.611-1.245-6.212-0.536-7.458,0.066
					c-2.003,0.969-4.64,3.02-4.611,5.461c0,0.004,0.001,0.008,0.001,0.012c-0.075,0.065-0.15,0.125-0.223,0.205
					c-1.768,1.928-15.721,14.032-15.721,14.032l-14.194-10.738c0,0-2.259,0.762-3.223,2.69c-0.964,1.928-1.408,6.271,1.645,9.725
					c2.304,2.607,11.402,9.471,15.292,11.561c1.215,0.652,2.715,0.352,3.59-0.713c1.833-2.231,5.062-6.306,8.191-10.973
					c3.663-5.463,6.836-9.67,8.057-11.971c0.115,0.011,0.217,0.04,0.338,0.041c2.611,0.04,3.254-1.245,5.262-1.647
					c2.009-0.402,4.298,0.844,5.262-0.803C405.888,261.339,405.326,257.282,402.715,256.037z"/>
				<path style="fill-rule:evenodd;clip-rule:evenodd;" d="M337.523,258.225l16.186-25.024c0,0,3.013-2.771,3.053-6.387
					c0.04-3.615-2.731-8.877-8.997-9.198c-6.266-0.321-7.632,4.981-7.632,4.981s-10.444-0.482-14.942,4.419
					c-4.499,4.9,0.001,11.809,1.728,17.995c1.727,6.186,0.844,7.31,2.571,10.242C331.217,258.185,337.523,258.225,337.523,258.225z"
					/>
				<path style="fill-rule:evenodd;clip-rule:evenodd;fill:#F2CF8E;" d="M332.182,246.479c-1.808,0.281-3.374,4.579-1.848,6.829
					c1.527,2.249,5.021,2.33,5.021,2.33s2.611,6.587,7.552,7.833c4.941,1.245,11.448-2.651,12.539-5.124
					c1.091-2.473,0.234-7.127,0.234-7.127l-1.045-19.683c0,0-2.089,2.892-5.864,3.133c-3.776,0.241-12.131-3.133-12.131-3.133
					s-1.205,1.928-1.767,5.704s0.603,7.793,0.603,7.793l-0.121,4.94C335.355,249.973,333.99,246.198,332.182,246.479z"/>
				<path style="fill-rule:evenodd;clip-rule:evenodd;fill:#42403C;" d="M346.222,253.561c0,0,4.101,2.081,6.166,0.64
					c2.065-1.441,2.065-1.441,2.065-1.441s0.703,4.199-2.631,4.954C348.487,258.469,346.411,255.071,346.222,253.561z"/>
				<path style="fill-rule:evenodd;clip-rule:evenodd;fill:#83C59E;" d="M342.705,292.468c14.38,1.687,14.074-1.598,14.074-1.598
					s3.022-9.19,2.781-14.974c-0.241-5.784-2.475-10.661-2.475-10.661s-22.574-3.054-24.583-2.009
					c-2.009,1.044-5.781,2.304-5.54,6.561c0.241,4.258-1.047,17.057-1.047,17.057S328.325,290.781,342.705,292.468z"/>
				<g>
					<path style="fill-rule:evenodd;clip-rule:evenodd;fill:#E2E2E2;" d="M409.807,220.11l-7.588-3.5l0.058-0.025l-1.701-4.008
						c-0.214-0.506-0.798-0.741-1.303-0.527l-1.691,0.718l-1.691,0.718c-0.505,0.214-0.741,0.798-0.527,1.303l1.701,4.008
						l0.058-0.024l-2.755,7.889c-0.162,0.463-0.145,0.969,0.046,1.421l14.309,33.724c0.426,1.003,1.583,1.471,2.586,1.045
						l6.376-2.705l6.376-2.706c1.003-0.426,1.471-1.584,1.045-2.586l-14.309-33.724C410.605,220.68,410.252,220.316,409.807,220.11z
						"/>
					<path style="fill-rule:evenodd;clip-rule:evenodd;fill:#CFD1D1;" d="M418.334,257.637c-1.357,0.576-2.924-0.057-3.5-1.414
						l-13.146-30.981l-7.188,3.05l14.221,33.515c0.426,1.003,1.583,1.471,2.586,1.045l6.376-2.705l6.376-2.706
						c1.003-0.426,1.471-1.584,1.045-2.586l-0.033-0.077L418.334,257.637z"/>
					
						<rect x="405.272" y="234.99" transform="matrix(0.9206 -0.3906 0.3906 0.9206 -59.4466 178.6884)" style="fill-rule:evenodd;clip-rule:evenodd;fill:#CFD1D1;" width="8.62" height="1.007"/>
					
						<rect x="407.189" y="239.508" transform="matrix(0.9206 -0.3906 0.3906 0.9206 -61.0595 179.8011)" style="fill-rule:evenodd;clip-rule:evenodd;fill:#CFD1D1;" width="8.62" height="1.007"/>
					
						<rect x="409.105" y="244.025" transform="matrix(0.9206 -0.3906 0.3906 0.9206 -62.6715 180.9058)" style="fill-rule:evenodd;clip-rule:evenodd;fill:#CFD1D1;" width="8.62" height="1.007"/>
					
						<rect x="411.022" y="248.543" transform="matrix(0.9206 -0.3906 0.3906 0.9206 -64.2845 182.0185)" style="fill-rule:evenodd;clip-rule:evenodd;fill:#CFD1D1;" width="8.62" height="1.007"/>
					
						<rect x="412.939" y="253.061" transform="matrix(0.9206 -0.3906 0.3906 0.9206 -65.8969 183.126)" style="fill-rule:evenodd;clip-rule:evenodd;fill:#CFD1D1;" width="8.62" height="1.007"/>
				</g>
				<path style="fill-rule:evenodd;clip-rule:evenodd;fill:#ECCD30;" d="M330.733,246.898c2.209-1.245,6.186-2.41,6.186-2.41
					s1.245-3.575,0.803-5.383c-0.442-1.807-1.285-2.41-1.285-2.41l-11.97,7.31c0,0,0.396,2.498,1.084,3.414
					C326.241,248.336,328.524,248.143,330.733,246.898z"/>
				<path style="fill-rule:evenodd;clip-rule:evenodd;fill:#E07B72;" d="M356.943,236.293c0,0-5.664-1.446-11.608-1.406
					c-5.945,0.04-9.459,1.372-9.459,1.372v4.734c0,3.575,0.797,8.699,4.131,10.366c3.334,1.667,5.931-0.344,6.935-2.915
					c0.321-0.823,0.638-1.602,0.921-2.281c0.329-0.79,1.464-0.756,1.735,0.056c0.666,1.999,1.816,4.547,3.449,5.017
					c2.757,0.795,5.021-1.486,5.061-4.74C358.147,243.242,356.943,236.293,356.943,236.293z"/>
				<path style="fill-rule:evenodd;clip-rule:evenodd;fill:#F2CF8E;" d="M352.868,270.418c9.078-3.454,44.987-18.799,44.987-18.799
					s3.012,0.402,4.619-0.643c1.607-1.044,1.727-1.848,4.378-2.892c2.651-1.044,5.262-0.764,5.905-2.491
					c0.643-1.727,0.562-8.596-2.49-9.118s-8.877,2.249-11.528,4.298c-2.651,2.049-3.213,4.137-4.177,5.141
					c-0.964,1.004-1.446,1.206-1.446,1.206s-53.583,9.961-60.01,12.934c-6.427,2.972-7.391,7.471-5.463,11.809
					C329.571,276.202,343.79,273.872,352.868,270.418z"/>
				<path style="fill-rule:evenodd;clip-rule:evenodd;fill:#E5A09B;" d="M356.943,236.293c0,0-5.664-1.446-11.608-1.406
					c-5.945,0.04-9.459,1.372-9.459,1.372l1.956,0.116c0.353,0.021,0.627,0.308,0.625,0.661c-0.012,2.041,0.029,8.511,1.013,10.587
					c1.174,2.478,6.259,1.69,8.393-1.46c0.329-0.79,1.464-0.756,1.735,0.056c0.091,0.274,0.192,0.557,0.301,0.844
					c0.772,2.021,2.914,3.194,5.029,2.742c0.984-0.21,1.907-0.648,2.367-1.508c0.41-0.765,0.644-2.072,0.746-3.571
					C357.796,241.226,356.943,236.293,356.943,236.293z"/>
				<path style="fill-rule:evenodd;clip-rule:evenodd;fill:#323F20;" d="M340.006,236.695c0,0,9.655-1.485,16.367,0.612
					c0,0,0.767,7.592,0.195,9.27c-0.572,1.678-2.921,2.223-3.97,1.636c-1.049-0.587-2.391-4.152-3.817-4.152
					c-1.426,0-2.307,2.894-4.656,3.314c-2.349,0.419-3.875-0.881-4.119-2.307C339.762,243.641,340.006,236.695,340.006,236.695z"/>
				<path style="fill-rule:evenodd;clip-rule:evenodd;fill:#D8A45C;" d="M348.697,252.576c0,0,2.139,0.587,2.936-0.252
					c0.797-0.839-2.035-6.106-2.035-6.106s1.28,4.302,1.029,5.057C350.374,252.03,348.697,252.576,348.697,252.576z"/>
			</g>
			<g>
				<path style="fill-rule:evenodd;clip-rule:evenodd;fill:#67BF58;" d="M82.272,451.176c12.703-2.656,17.192-6.468,27.82,1.138
					c16.388,11.729,26.992,26.511,47.397,6.427c10.323-10.161,21.676-31.755,35.076-54.108
					C150.738,413.399,113.076,429.589,82.272,451.176z"/>
				<path style="fill-rule:evenodd;clip-rule:evenodd;fill:#67BF58;" d="M372.383,414.1c-1.247,0.997-2.613,2.089-4.096,3.348
					c-10.604,8.997-17.352,9.319-24.422,17.995c-7.069,8.676-7.391,17.352-2.892,26.029c4.499,8.676,19.923,7.712,36.311,17.031
					c9.153,5.205,14.096,14.719,16.676,22.106h104.818C470.623,462.383,426.159,431.809,372.383,414.1z"/>
			</g>
			<g>
				<g>
					<path style="fill-rule:evenodd;clip-rule:evenodd;fill:#42403C;" d="M57.189,251.702l24.403,3.956c0,0,1.95-8.86-2.611-15.88
						c-4.561-7.02-13.51-8.959-22.024-5.705s-7.871,12.621-6.315,15.059C52.199,251.571,57.189,251.702,57.189,251.702z"/>
					<path style="fill-rule:evenodd;clip-rule:evenodd;fill:#F2CF8E;" d="M79.02,254.263c0,0,2.026-4.564,1.662-6.872
						c-0.365-2.309-2.578-3.275-3.894-0.804c-1.316,2.472,0.988,7.1,0.988,7.1L79.02,254.263z"/>
					<path style="fill-rule:evenodd;clip-rule:evenodd;fill:#E5B42A;" d="M79.557,263.35c-0.09,0.042-0.163,0.108-0.212,0.194
						c-1.024,1.785-12.405,21.565-15.613,24.364c-3.056,2.666-19.339,5.198-22.263,5.635c-0.257,0.039-0.432,0.269-0.405,0.527
						c0.096,0.897,0.354,2.916,0.857,4.388c0.389,1.139,0.617,1.753,0.739,2.065c0.07,0.18,0.234,0.298,0.427,0.307
						c2.057,0.094,13.885,0.574,17.598-0.659c4.072-1.352,11.605-10.424,13.969-15.806c2.363-5.382,6.563-21.8,6.563-21.8
						L79.557,263.35z"/>
					<path style="fill-rule:evenodd;clip-rule:evenodd;fill:#E3BE80;" d="M83.646,262.288c1.972-2.278,2.896-5.318,2.896-5.318
						l-6.759-3.159l-2.779,7.837l2.394,3.551C79.397,265.199,81.674,264.567,83.646,262.288z"/>
					<path style="fill-rule:evenodd;clip-rule:evenodd;fill:#F2CF8E;" d="M79.795,254.198c-0.01-0.382-0.184-0.737-0.479-0.98
						l-6.622-5.457c0,0-2,0.219-4.862-0.725c-2.862-0.944-4.433-2.747-4.433-2.747s-0.899,2.024-3.127,3.827
						c-2.228,1.802-5.195,3.167-5.195,3.167s6.859,12.969,13.393,14.979c6.534,2.009,9.663-2.414,10.615-5.06
						C79.835,259.119,79.83,255.6,79.795,254.198z"/>
					<path style="fill-rule:evenodd;clip-rule:evenodd;fill:#6B847F;" d="M140.874,395.054c1.102,0.141,4.38-0.125,8.872-8.087
						c3.538-6.27,1.619-9.364,0.242-10.756c-1.377-1.392-3.467-2.23-3.467-2.23l-2.753,3.023c0,0-1.457,2.542-3.087,7.164
						C137.881,392.109,139.772,394.913,140.874,395.054z"/>
					<path style="fill-rule:evenodd;clip-rule:evenodd;fill:#6B847F;" d="M104.247,377.337c-0.29-1.006-0.855-2.719-1.53-3.516
						c-0.989-1.167-6.319-0.353-6.319-0.353s-0.514,0.242-4.955,3.212c-3.45,2.307-5.213,5.704-5.828,7.105
						c-0.283,0.646,0.064,1.419,0.751,1.577c0.932,0.214,2.719,0.12,6.14-0.958c5.83-1.837,9.845-4.64,11.323-5.778
						C104.222,378.323,104.385,377.815,104.247,377.337z"/>
					<path style="fill-rule:evenodd;clip-rule:evenodd;fill:#F2CF8E;" d="M97.791,376.596c1.434,0.196,3.493-2.241,3.493-2.241
						l-1.36-5.999l-5.144,0.177l0.836,6.576C95.616,375.109,96.357,376.4,97.791,376.596z"/>
					<path style="fill-rule:evenodd;clip-rule:evenodd;fill:#F2CF8E;" d="M146.891,378.767c1.738-1.509,1.531-1.882,1.531-1.882
						l-2.137-5.806l-6.118,1.342l3.343,6.368C143.511,378.789,145.153,380.276,146.891,378.767z"/>
					<path style="fill-rule:evenodd;clip-rule:evenodd;fill:#323F20;" d="M113.825,314.3c-1.769-1.491-17.385-2.456-17.385-2.456
						s-12.054,17.007-14.254,21.936c-2.2,4.928,11.313,35.233,11.313,35.233s1.952,1.813,4.661,1.165
						c2.709-0.647,3.447-1.748,3.447-1.748l-4.835-29.274l17.763-20.418C114.533,318.738,115.594,315.79,113.825,314.3z"/>
					<path style="fill-rule:evenodd;clip-rule:evenodd;fill:#323F20;" d="M147.961,370.735c-1.812-5.958-17.608-57.733-20.35-61.294
						c-2.909-3.779-2.909-3.779-2.909-3.779l-13.398,9.95l26.756,56.834c0.068,0.145,0.167,0.267,0.299,0.358
						c0.729,0.507,3.358,2.126,5.983,1.184c1.89-0.678,2.885-1.535,3.373-2.099C147.992,371.57,148.083,371.139,147.961,370.735z"/>
					<path style="fill-rule:evenodd;clip-rule:evenodd;fill:#ECCD30;" d="M95.338,312.771c0,0,2.404,2.572,7.119,3.586
						c4.715,1.014,8.637,0.675,15.025,0.241c6.388-0.433,12.461-6.871,12.461-6.871s0.054-3.353-2.659-10.05
						c-2.713-6.696-10.176-21.548-19.762-30.974c-9.586-9.425-17.237-12.703-17.237-12.703l-7.581,29.002
						c0,0,3.417,3.791,8.068,11.27C95.425,303.753,95.338,312.771,95.338,312.771z"/>
					<path style="fill-rule:evenodd;clip-rule:evenodd;fill:#589C52;" d="M67.332,337.865c8.397-11.236,5.45-26.298,5.45-26.298
						s-4.49,1.799-11.342,13.25c-6.852,11.451-8.834,24.361-8.834,24.361S58.934,349.101,67.332,337.865z"/>
					<polygon style="fill:#455D2D;" points="58.751,374.25 30.708,272.962 31.705,272.676 60.686,373.694 					"/>
					<path style="fill-rule:evenodd;clip-rule:evenodd;fill:#589C52;" d="M35.243,253.835c-3.391-12.405-15.868-24.34-15.868-24.34
						s-3.587,8.887-1.486,23.218c2.101,14.331,15.322,28.862,15.322,28.862S38.634,266.239,35.243,253.835z"/>
					<path style="fill-rule:evenodd;clip-rule:evenodd;fill:#F2CF8E;" d="M44.785,315.58c2.78-0.963,7.085-4.623,7.085-4.623
						l-1.394-4.429l-3.396,0.657c0,0-2.284-1.719-4.673-1.724c-2.388-0.005-4.642,2.342-5.296,3.687
						c-0.655,1.344-0.813,2.141,0.664,3.612C39.252,314.23,42.005,316.543,44.785,315.58z"/>
					<path style="fill-rule:evenodd;clip-rule:evenodd;fill:#ECCD30;" d="M92.93,257.494c-0.041-0.059-0.081-0.103-0.136-0.15
						c-0.395-0.334-2.279-1.792-4.939-1.652c-3.002,0.158-5.758,3.307-7.187,5.738c-1.43,2.431-7.342,20.88-11.559,26.193
						c-3.807,4.796-16.852,15.936-19.356,18.059c-0.256,0.217-0.358,0.561-0.267,0.883l1.361,4.775
						c0.129,0.452,0.597,0.714,1.05,0.587c3.647-1.015,18.504-5.495,24.915-12.737c7.337-8.289,15.28-21.823,17.271-29.729
						C95.913,262.197,93.357,258.11,92.93,257.494z"/>
					
						<path style="fill-rule:evenodd;clip-rule:evenodd;fill:none;stroke:#E5B42A;stroke-width:0.5;stroke-linecap:round;stroke-miterlimit:10;" d="
						M85.866,286.817c3.892-6.263,7.06-12.761,8.218-17.357c0.996-3.953,0.692-6.966,0.14-8.989"/>
					<path style="fill-rule:evenodd;clip-rule:evenodd;fill:#F2CF8E;" d="M42.918,299.163l-1.067-4.335
						c-0.078-0.318-0.306-0.575-0.614-0.685c-0.796-0.283-2.349-0.94-3.455-0.976c-1.435-0.047-4.653,1.186-5.709,2.343
						c-1.056,1.157-1.077,3.113,0.736,5.43c1.813,2.317,4.304,2.275,6.319,1.42c1.409-0.597,2.771-1.636,3.464-2.207
						C42.881,299.912,43.008,299.53,42.918,299.163z"/>
					<path style="fill:#6DBF60;" d="M72.852,311.977c-0.042-0.265-0.07-0.41-0.07-0.41s-0.269,0.109-0.771,0.436
						c-1.272,2.82-2.657,5.735-4.1,8.65l-0.99-3.757c-0.192,0.233-0.389,0.477-0.589,0.73l1.068,4.056
						c-0.844,1.691-1.701,3.374-2.556,5.028l-1.585-4.798c-0.174,0.265-0.349,0.535-0.527,0.814l1.626,4.921
						c-0.918,1.766-1.829,3.491-2.718,5.153l-2.1-4.54c-0.147,0.288-0.292,0.575-0.433,0.863l2.087,4.511
						c-0.741,1.379-1.46,2.703-2.152,3.966l-1.894-4.093c-0.132,0.323-0.26,0.645-0.385,0.965l1.828,3.95
						c-0.754,1.373-1.469,2.661-2.128,3.839l-1.53-2.561c-0.103,0.331-0.202,0.655-0.297,0.974l1.401,2.346
						c-1.575,2.806-2.787,4.914-3.402,5.976c-0.019,0.116-0.03,0.181-0.03,0.181s0.306-0.004,0.872-0.129
						c0.657-1.138,1.785-3.105,3.209-5.642l5.574,0.25c0.243-0.231,0.488-0.472,0.737-0.723l-5.898-0.266
						c0.666-1.19,1.389-2.493,2.153-3.883l8.403-1.378c0.204-0.286,0.403-0.573,0.593-0.862l-8.536,1.401
						c0.693-1.265,1.412-2.59,2.154-3.971l8.974-2.439c0.116-0.291,0.225-0.581,0.33-0.872l-8.815,2.395
						c0.874-1.635,1.77-3.332,2.673-5.068l7.623-2.871c0.052-0.289,0.101-0.577,0.146-0.862l-7.249,2.729
						c0.849-1.643,1.7-3.314,2.537-4.993l5.186-3.229c0.006-0.305,0.009-0.604,0.008-0.895l-4.556,2.837
						C70.18,317.763,71.576,314.819,72.852,311.977z"/>
					<g>
						<path style="fill-rule:evenodd;clip-rule:evenodd;fill:#589C52;" d="M47.928,334.633c0,0-2.017-10.793-12.842-17.249
							c-10.825-6.456-30.305-6.892-30.305-6.892s14.811,16.258,26.322,20.57C42.614,335.375,47.928,334.633,47.928,334.633z"/>
						<path style="fill:#6DBF60;" d="M47.601,333.357l-7.761-4.324l-0.874-8.864c-0.268-0.228-0.543-0.455-0.826-0.679l0.897,9.095
							l-3.957-2.204l-3.55-10.789c-0.305-0.131-0.61-0.261-0.921-0.385l3.499,10.632l-7.032-3.918l-3.039-8.803
							c-0.291-0.074-0.582-0.147-0.874-0.217l2.923,8.469l-6.658-3.709l-2.411-5.969c-0.293-0.047-0.581-0.09-0.868-0.133
							l2.228,5.517l-11.661-6.497c-0.808-0.047-1.392-0.069-1.695-0.08l12.555,6.995l-6.003-0.213
							c0.277,0.259,0.56,0.521,0.849,0.785l6.601,0.233l6.851,3.817l-5.969,2.269c0.237,0.181,0.476,0.358,0.714,0.536l6.116-2.325
							l7.113,3.963l-7.054,2.45c0.298,0.168,0.596,0.332,0.892,0.489l7.046-2.446l4.093,2.281l-3.67,3.128
							c0.298,0.094,0.574,0.172,0.862,0.258l3.513-2.994l8.342,4.648C47.822,334.157,47.735,333.808,47.601,333.357z"/>
					</g>
					<path style="fill:#6DBF60;" d="M33.211,281.575L33.211,281.575c0,0,0.082-0.232,0.217-0.654l-2.876-10.826l5.793-6.2
						c0.008-0.371,0.011-0.742,0.009-1.116l-6.031,6.454l-1.967-7.405l6.437-9.468c-0.098-0.298-0.198-0.596-0.306-0.892
						l-6.388,9.395l-1.914-7.204l5.084-8.969c-0.146-0.252-0.294-0.501-0.443-0.75l-4.918,8.678l-2.146-8.078l1.942-7.948
						c-0.2-0.253-0.399-0.501-0.595-0.743l-1.751,7.167l-3.453-12.998c-0.339-0.341-0.53-0.524-0.53-0.524s-0.09,0.231-0.223,0.631
						l3.496,13.159l-5.116-5.121c-0.034,0.321-0.071,0.632-0.1,0.968l5.603,5.608l2.178,8.197l-7.706-3.481
						c0.027,0.288,0.051,0.572,0.082,0.866l7.874,3.557l1.951,7.343l-7.936-2.184c0.1,0.291,0.205,0.58,0.311,0.869l7.85,2.161
						l1.97,7.414l-5.972-1.383c0.171,0.302,0.343,0.599,0.516,0.895l5.675,1.314l2.824,10.629
						C33.008,281.351,33.211,281.575,33.211,281.575z"/>
				</g>
				
					<path style="fill-rule:evenodd;clip-rule:evenodd;fill:none;stroke:#42403C;stroke-width:0.75;stroke-linecap:round;stroke-linejoin:round;stroke-miterlimit:10;" d="
					M67.033,263.504c0,0,2.486,0.954,3.482-0.261c0.996-1.215,0.359-3.094,0.359-3.094"/>
				<path style="fill-rule:evenodd;clip-rule:evenodd;fill:#D8A45C;" d="M62.895,255.232c0,0,1.164,1.434,1.059,2.878
					c-0.104,1.445,0.711,2.331,1.67,2.253c0.959-0.079,2.473-0.568,1.623-0.888c-0.85-0.32-1.464,0.337-1.966,0.025
					s-0.652-0.931-0.876-2.002C64.181,256.427,62.895,255.232,62.895,255.232z"/>
				<path style="fill-rule:evenodd;clip-rule:evenodd;fill:#42403C;" d="M68.029,253.693c0.512,0.523,0.638,1.229,0.282,1.577
					c-0.356,0.349-1.059,0.207-1.571-0.315c-0.512-0.523-0.638-1.229-0.283-1.577C66.814,253.03,67.518,253.171,68.029,253.693z"/>
				<path style="fill-rule:evenodd;clip-rule:evenodd;fill:#42403C;" d="M65.274,254.239c0,0-0.874-1.551,0.07-2.506
					c0.944-0.954,2.685-0.046,2.836-0.342c0.151-0.295-1.872-1.102-2.812-0.563c-0.94,0.539-0.989,1.189-0.939,1.889
					C64.559,254.528,65.274,254.239,65.274,254.239z"/>
				<path style="fill-rule:evenodd;clip-rule:evenodd;fill:#42403C;" d="M61.933,259.664c0.512,0.523,1.153,0.725,1.432,0.452
					s0.09-0.918-0.422-1.441c-0.512-0.522-1.153-0.725-1.432-0.451C61.233,258.497,61.421,259.142,61.933,259.664z"/>
				<path style="fill-rule:evenodd;clip-rule:evenodd;fill:#42403C;" d="M62.52,256.936c0,0-1.462-0.975-2.228-0.254
					c-0.766,0.721,0.199,2.388-0.05,2.486c-0.25,0.098-1.151-1.809-0.754-2.579c0.396-0.77,0.972-0.732,1.6-0.599
					C62.714,256.335,62.52,256.936,62.52,256.936z"/>
			</g>
			<g>
				<path style="fill-rule:evenodd;clip-rule:evenodd;fill:#363636;" d="M251.159,159.617c-2.089-7.15,2.016-14.672-1.825-19.923
					c-4.49-6.139-9.312-3.872-9.312-3.872s-4.381-4.029-11.199-0.804c-6.355,3.006-11.236,11.195-11.236,11.195l7.993,24.488
					c3.217,9.856,13.483,15.915,23.524,13.331c2.674-0.688,4.991-1.862,6.417-3.77C261.225,172.631,253.248,166.767,251.159,159.617
					z"/>
				<path style="fill-rule:evenodd;clip-rule:evenodd;fill:#363636;" d="M159.076,285.968c1.848-0.743,2.247-3.976,1.734-6.296
					c-0.554-2.505,0.401-7.511,0.401-7.511l-6.225-1.225c-0.35-0.102-2.29,2.129-4.218,6.547c-1.928,4.418-1.963,7.601,0.507,8.606
					C153.745,287.093,157.228,286.711,159.076,285.968z"/>
				<path style="fill-rule:evenodd;clip-rule:evenodd;fill:#363636;" d="M225.414,284.785c5.668-0.18,7.45-0.967,6.134-2.951
					c-1.316-1.984-6.728-3.385-9.55-4.542c-3.882-1.592-5.221-3.113-5.409-3.092c-0.189,0.021-5.375-0.082-5.375-0.082
					s-1.151-0.176-2.066,3.726c-0.711,3.031,0.068,4.08,2.446,5.039C213.971,283.841,219.712,284.966,225.414,284.785z"/>
				<path style="fill-rule:evenodd;clip-rule:evenodd;fill:#F1CEC5;" d="M160.247,273.82l7.071-9.438l-7.802-1.52l-5.214,9.118
					c0,0-0.12,1.767,2.129,2.41C158.681,275.033,160.247,273.82,160.247,273.82z"/>
				<path style="fill-rule:evenodd;clip-rule:evenodd;fill:#F1CEC5;" d="M213.912,277.263c3.776,0.619,4.576-1.797,4.576-1.797
					l5.599-13.353l-8.951,0.267l-4.134,12.245C211.002,274.624,210.136,276.644,213.912,277.263z"/>
				<path style="fill-rule:evenodd;clip-rule:evenodd;fill:#BBD5CE;" d="M222.655,267.366c9.279-2.125,10.925-4.114,10.925-4.114
					s2.798-27.873-1.621-36.011c-4.418-8.138-22.1-27.076-22.1-27.076s-9.56-2.17-13.496,3.527
					c-3.936,5.696-2.008,22.515-2.008,22.515c0.643,0.452,11.16,9.927,12.285,16.889s-1.699,25.22-1.699,25.22
					S213.376,269.49,222.655,267.366z"/>
				<path style="fill-rule:evenodd;clip-rule:evenodd;fill:#666666;" d="M171.16,198.373c-0.007-0.004-0.013-0.014-0.021-0.014
					C171.117,198.361,171.125,198.365,171.16,198.373z"/>
				<path style="fill-rule:evenodd;clip-rule:evenodd;fill:#D1E4DF;" d="M164.15,235.66c-3.213,6.133-16.099,27.329-16.099,27.329
					s4.049,2.579,13.85,5.351c9.801,2.772,18.791,1.398,18.791,1.398s14.395-25.3,15.592-43.656
					c0.734-11.261,2.611-24.363,2.611-24.363s-26.673-3.102-27.735-3.346c0.606,0.3-2.034,14.919-2.351,20.148
					C168.488,223.814,167.363,229.527,164.15,235.66z"/>
				<path style="fill-rule:evenodd;clip-rule:evenodd;fill:#DF7B78;" d="M220.688,178.094c4.499-5.945,10.07-11.605,10.07-11.605
					s-0.872-6.149-2.559-9.563c-2.839-5.745-2.831-8.072-8.395-12.331c-5.142-3.937-8.034-4.9-8.034-4.9s-21.77,5.944-29.643,16.388
					c-7.873,10.444-10.839,23.305-12.677,29.297c-2.297,7.491-2.133,15.436-2.133,15.436l35.536,1.861
					C202.854,202.677,216.189,184.039,220.688,178.094z"/>
				<path style="fill-rule:evenodd;clip-rule:evenodd;fill:#EFC2B4;" d="M224.946,159.537l4.461-2.951l-0.178-8.561l-7.818,3.719
					c0,0-0.361,2.972,0.803,5.101C223.379,158.975,224.946,159.537,224.946,159.537z"/>
				<path style="fill-rule:evenodd;clip-rule:evenodd;fill:#F1CEC5;" d="M244.175,153.171c0,0,1.852-2.02,0.566-5.394
					c-1.285-3.374-2.076-4.938-2.076-4.938s0.156,1.354-4.343,2.157c-4.499,0.803-7.351-1.446-7.351-1.446s-3.775,4.137-4.458,8.355
					c-0.683,4.217,0.803,8.315,5.624,8.636C236.957,160.862,244.175,153.171,244.175,153.171z"/>
				<path style="fill-rule:evenodd;clip-rule:evenodd;fill:#DF7B78;" d="M212.164,202.324c0,0,12.486,0.003,22.873-5.17
					c5.071-2.526-5.011-32.957-5.011-32.957l-10.074,10.263l5.43,16.457l-11.162,3.405c0,0,0.402,2.731-0.643,5.462
					C212.533,202.516,212.164,202.324,212.164,202.324z"/>
				<path style="fill-rule:evenodd;clip-rule:evenodd;fill:#F1CEC5;" d="M203.755,202.536c2.49,0.803,8.409-0.212,8.409-0.212
					s1.392-0.551,2.235-2.72c0.843-2.169-0.179-5.282-0.179-5.282l-15.125,0.622c0,0-1.085,2.008-0.201,3.495
					C199.778,199.925,201.264,201.733,203.755,202.536z"/>
				<path style="fill-rule:evenodd;clip-rule:evenodd;fill:#DF7B78;" d="M195.582,149.013c10.948-0.46,15.164-1.866,17.156-3.964
					c2.097-2.21,3.505-5.33-9.144-7.842c-11.767-2.337-29.58,2.488-29.58,2.488s2.69,1.446,7.028,5.061
					C185.38,148.37,191.798,149.172,195.582,149.013z"/>
				
					<path style="fill-rule:evenodd;clip-rule:evenodd;fill:none;stroke:#CC6060;stroke-width:0.5;stroke-linecap:round;stroke-linejoin:round;stroke-miterlimit:10;" d="
					M196.45,148.974c10.305-0.497,14.35-1.883,16.288-3.925c0.633-0.667,1.204-1.418,1.343-2.21"/>
				<path style="fill-rule:evenodd;clip-rule:evenodd;fill:#DF7B78;" d="M198.072,159.617c0,0,1.767-0.964,2.33-3.695
					c0.562-2.731-0.402-3.776-0.402-3.776s-6.587-6.668-14.701-10.283c-8.114-3.615-12.934-3.535-13.737,1.205
					c-0.803,4.74,7.257,9.327,12.023,11.291C188.352,156.324,198.072,159.617,198.072,159.617z"/>
				
					<path style="fill-rule:evenodd;clip-rule:evenodd;fill:none;stroke:#CC6060;stroke-width:0.5;stroke-linecap:round;stroke-linejoin:round;stroke-miterlimit:10;" d="
					M184.874,154.876c5.033,1.974,13.199,4.741,13.199,4.741"/>
				
					<path style="fill-rule:evenodd;clip-rule:evenodd;fill:none;stroke:#CC6060;stroke-width:0.5;stroke-linecap:round;stroke-linejoin:round;stroke-miterlimit:10;" d="
					M198.399,150.645c-2.434-2.18-7.389-6.237-13.1-8.781c-2.883-1.285-5.351-2.103-7.37-2.411"/>
				<polygon style="fill-rule:evenodd;clip-rule:evenodd;fill:#417095;" points="217.372,186.51 212.069,196.35 248.139,193.217 
					249.023,190.004 				"/>
				<path style="fill-rule:evenodd;clip-rule:evenodd;fill:#417095;" d="M202.651,198.338c8.676,2.169,11.488-2.329,13.617-5.744
					c2.129-3.414,6.253-12.803,6.709-15.389c0.455-2.587,0.24-3.088,0.24-3.088l-21.008-15.464l-2.49,0.321
					c0,0-5.663,2.169-11.769,9.118c-6.105,6.949-5.342,12.974-4.298,15.625C184.697,186.369,193.975,196.169,202.651,198.338z"/>
				<path style="fill-rule:evenodd;clip-rule:evenodd;fill:#417095;" d="M219.882,153.613c-5.235-2.883-10.569-1.682-13.222-0.743
					c-0.847,0.3-1.093,1.382-0.474,2.034c0.363,0.382,0.919,0.491,1.404,0.284c0.546-0.233,1.389-0.474,2.512-0.451
					c2.133,0.045,8.294,2.732,10.624,7.07c1.797,3.346,0.32,8.15-0.45,10.172c-0.215,0.565,0.007,1.196,0.525,1.509l0.553,0.333
					c0.603,0.364,1.383,0.156,1.734-0.455C225.063,169.926,230.077,159.227,219.882,153.613z"/>
				<path style="fill-rule:evenodd;clip-rule:evenodd;fill:#F1CEC5;" d="M201.969,161.425c2.651-0.482,5.302-0.964,5.824-2.771
					c0.522-1.808,0.321-3.776,0.321-3.776s-2.37-3.133-4.74-3.856c-2.37-0.723-4.218-0.442-5.222,1.165
					c-1.004,1.607-1.887,4.508-1.185,7.054C197.671,161.787,199.318,161.907,201.969,161.425z"/>
				<path style="fill-rule:evenodd;clip-rule:evenodd;fill:#417095;" d="M254.285,200.689c1.325-1.687,3.936-6.427,4.057-9.158
					c0.121-2.731-1.928-2.169-3.253-2.049c-1.326,0.12-6.678,0.455-6.678,0.455s-0.746,2.811-0.713,3.2
					c0.034,0.39,4.298,8.355,4.298,8.355S252.959,202.376,254.285,200.689z"/>
				<path style="fill-rule:evenodd;clip-rule:evenodd;fill:#589C52;" d="M270.124,281.398c0,0-6.748-14.461-9.881-19.2
					c-3.133-4.74-8.756-6.588-6.829-0.804C255.343,267.178,270.124,281.398,270.124,281.398z"/>
				<path style="fill-rule:evenodd;clip-rule:evenodd;fill:#589C52;" d="M270.326,281.157c0,0,3.615-19.28,3.294-27.635
					c-0.321-8.355-6.668-6.748-6.427,4.258C267.434,268.785,269.718,281.442,270.326,281.157z"/>
				<path style="fill-rule:evenodd;clip-rule:evenodd;fill:#589C52;" d="M281.389,263.231c-3.799,4.225-11.647,18.172-11.647,18.172
					s16.267-11.109,19.029-16.544C291.533,259.423,285.189,259.007,281.389,263.231z"/>
				<path style="fill-rule:evenodd;clip-rule:evenodd;fill:#363636;" d="M240.148,155.764c-0.488,0.372-1.049,0.456-1.253,0.189
					c-0.204-0.267,0.027-0.785,0.516-1.157c0.488-0.372,1.049-0.456,1.253-0.189C240.867,154.874,240.636,155.392,240.148,155.764z"
					/>
				<path style="fill-rule:evenodd;clip-rule:evenodd;fill:#363636;" d="M240.215,153.721c0,0,1.337-0.626,1.899,0.084
					c0.562,0.71-0.436,1.985-0.237,2.1c0.198,0.116,1.169-1.369,0.923-2.071c-0.246-0.701-0.734-0.746-1.276-0.718
					C240.12,153.189,240.215,153.721,240.215,153.721z"/>
				<path style="fill-rule:evenodd;clip-rule:evenodd;fill:#363636;" d="M236.033,150.356c-0.488,0.372-0.679,0.942-0.426,1.275
					c0.253,0.333,0.854,0.301,1.342-0.071c0.488-0.371,0.679-0.942,0.426-1.275C237.123,149.953,236.522,149.985,236.033,150.356z"
					/>
				<path style="fill-rule:evenodd;clip-rule:evenodd;fill:#363636;" d="M238.255,151.144c0,0,0.914-1.182,0.246-2.089
					c-0.668-0.907-2.223-0.365-2.313-0.628c-0.09-0.263,1.688-0.687,2.403-0.126c0.715,0.562,0.676,1.108,0.55,1.682
					C238.813,151.471,238.255,151.144,238.255,151.144z"/>
				<path style="fill-rule:evenodd;clip-rule:evenodd;fill:#DDA99C;" d="M238.601,153.322c0,0-1.604,2.112-2.454,2.489
					s-1.699-0.409-1.762-0.881c-0.063-0.472,0.755,0.472,1.227,0.503C236.084,155.466,238.601,153.322,238.601,153.322z"/>
				<path style="fill-rule:evenodd;clip-rule:evenodd;fill:#77431D;" d="M230.758,154.886c0,0,0.058,2.391,0.981,2.559
					c0.923,0.168,1.279,0.042,1.237,0c-0.042-0.042-0.965-0.252-1.237-0.524C231.466,156.648,230.758,154.886,230.758,154.886z"/>
				<path style="fill-rule:evenodd;clip-rule:evenodd;fill:#E5A4A4;" d="M238.168,157.017c0.245,0.487,0.172,1.018-0.161,1.186
					c-0.334,0.168-0.803-0.092-1.047-0.579c-0.245-0.487-0.172-1.018,0.161-1.186S237.924,156.53,238.168,157.017z"/>
				<path style="fill-rule:evenodd;clip-rule:evenodd;fill:#E5A4A4;" d="M234.739,151.609c0.245,0.487,0.172,1.018-0.161,1.186
					c-0.334,0.168-0.803-0.091-1.047-0.579c-0.245-0.487-0.172-1.018,0.161-1.186C234.026,150.863,234.495,151.122,234.739,151.609z
					"/>
				<g>
					<g>
						<path style="fill:#D1E4DF;" d="M259.96,196.194c-0.074,0-0.149-0.022-0.215-0.068c-0.256-0.178-0.396-0.268-0.4-0.27
							c-0.176-0.112-0.227-0.346-0.115-0.521c0.112-0.176,0.344-0.229,0.521-0.116c0,0,0.149,0.095,0.426,0.288
							c0.171,0.119,0.213,0.355,0.094,0.526C260.197,196.138,260.08,196.194,259.96,196.194z"/>
						<path style="fill:#D1E4DF;" d="M283.567,238.867c-0.187,0-0.348-0.138-0.374-0.326c-0.046-0.337-0.095-0.672-0.146-1.005
							c-0.031-0.206,0.11-0.399,0.316-0.431c0.213-0.037,0.399,0.111,0.431,0.317c0.051,0.336,0.1,0.675,0.146,1.016
							c0.029,0.206-0.116,0.397-0.322,0.425C283.6,238.866,283.584,238.867,283.567,238.867z M282.258,231.842
							c-0.171,0-0.326-0.117-0.368-0.291c-0.078-0.332-0.158-0.661-0.24-0.987c-0.051-0.202,0.072-0.408,0.273-0.458
							c0.208-0.053,0.408,0.072,0.458,0.273c0.084,0.33,0.164,0.663,0.244,0.999c0.047,0.202-0.079,0.406-0.281,0.454
							C282.315,231.839,282.286,231.842,282.258,231.842z M280.271,224.977c-0.156,0-0.303-0.098-0.357-0.254
							c-0.111-0.323-0.224-0.642-0.338-0.96c-0.071-0.196,0.031-0.412,0.227-0.483c0.196-0.073,0.413,0.03,0.483,0.227
							c0.116,0.32,0.229,0.643,0.342,0.967c0.068,0.198-0.036,0.412-0.233,0.481C280.353,224.97,280.312,224.977,280.271,224.977z
							 M277.587,218.353c-0.142,0-0.278-0.081-0.342-0.217c-0.145-0.31-0.291-0.615-0.438-0.917
							c-0.091-0.188-0.014-0.413,0.174-0.504c0.188-0.093,0.413-0.013,0.504,0.174c0.149,0.306,0.297,0.613,0.443,0.927
							c0.088,0.189,0.007,0.414-0.181,0.502C277.696,218.341,277.641,218.353,277.587,218.353z M274.204,212.057
							c-0.127,0-0.251-0.064-0.322-0.18c-0.179-0.292-0.358-0.579-0.538-0.863c-0.112-0.176-0.059-0.409,0.117-0.52
							c0.178-0.114,0.409-0.06,0.521,0.117c0.181,0.286,0.362,0.577,0.543,0.871c0.109,0.178,0.054,0.41-0.124,0.519
							C274.339,212.04,274.271,212.057,274.204,212.057z M270.131,206.182c-0.112,0-0.223-0.049-0.297-0.145
							c-0.212-0.269-0.423-0.535-0.633-0.793c-0.132-0.162-0.107-0.4,0.055-0.531c0.161-0.132,0.4-0.106,0.531,0.055
							c0.213,0.262,0.427,0.53,0.641,0.803c0.129,0.164,0.1,0.401-0.064,0.53C270.294,206.156,270.212,206.182,270.131,206.182z
							 M265.39,200.833c-0.096,0-0.193-0.036-0.266-0.11c-0.248-0.246-0.49-0.482-0.727-0.709c-0.15-0.143-0.156-0.382-0.012-0.533
							c0.144-0.152,0.383-0.158,0.534-0.012c0.24,0.229,0.486,0.469,0.737,0.719c0.148,0.146,0.149,0.385,0.002,0.534
							C265.584,200.796,265.487,200.833,265.39,200.833z"/>
						<path style="fill:#D1E4DF;" d="M284.211,245.487c-0.2,0-0.367-0.156-0.377-0.358l-0.029-0.5
							c-0.013-0.208,0.146-0.387,0.354-0.399c0.231-0.046,0.386,0.145,0.399,0.354l0.029,0.506c0.012,0.208-0.148,0.385-0.357,0.396
							C284.224,245.487,284.217,245.487,284.211,245.487z"/>
					</g>
					<g>
						<path style="fill:#D1E4DF;" d="M276.661,246.493c-0.18,0-0.339-0.129-0.371-0.312l-0.089-0.488
							c-0.038-0.204,0.097-0.402,0.302-0.44c0.202-0.033,0.402,0.097,0.44,0.303l0.09,0.493c0.036,0.205-0.101,0.401-0.306,0.437
							C276.705,246.492,276.682,246.493,276.661,246.493z"/>
						<path style="fill:#D1E4DF;" d="M275.328,239.923c-0.173,0-0.329-0.12-0.368-0.296l-0.224-1.01
							c-0.046-0.203,0.082-0.405,0.285-0.451c0.199-0.045,0.405,0.083,0.451,0.286l0.225,1.012c0.045,0.203-0.083,0.405-0.287,0.45
							C275.382,239.921,275.355,239.923,275.328,239.923z M273.66,232.87c-0.169,0-0.322-0.114-0.365-0.285l-0.257-1.002
							c-0.052-0.202,0.07-0.408,0.272-0.46c0.198-0.053,0.408,0.069,0.46,0.271l0.257,1.006c0.052,0.202-0.071,0.407-0.273,0.458
							C273.722,232.866,273.691,232.87,273.66,232.87z M271.758,225.878c-0.164,0-0.314-0.107-0.362-0.271l-0.293-0.991
							c-0.06-0.199,0.054-0.41,0.254-0.47c0.199-0.062,0.41,0.055,0.469,0.254l0.293,0.995c0.059,0.201-0.056,0.41-0.257,0.469
							C271.828,225.873,271.793,225.878,271.758,225.878z M269.574,218.97c-0.157,0-0.303-0.098-0.357-0.255l-0.34-0.977
							c-0.069-0.197,0.034-0.412,0.232-0.481c0.196-0.07,0.412,0.034,0.481,0.231l0.341,0.981c0.068,0.198-0.037,0.412-0.234,0.48
							C269.656,218.963,269.615,218.97,269.574,218.97z M267.016,212.19c-0.147,0-0.288-0.087-0.348-0.232
							c-0.133-0.318-0.268-0.634-0.403-0.95c-0.083-0.192,0.006-0.414,0.198-0.497c0.189-0.081,0.413,0.007,0.496,0.198
							c0.137,0.318,0.271,0.637,0.406,0.958c0.081,0.192-0.01,0.413-0.203,0.493C267.115,212.181,267.065,212.19,267.016,212.19z
							 M263.911,205.648c-0.134,0-0.263-0.071-0.332-0.197c-0.166-0.303-0.333-0.602-0.502-0.895
							c-0.104-0.181-0.042-0.412,0.138-0.516c0.181-0.105,0.412-0.041,0.516,0.139c0.172,0.299,0.342,0.602,0.511,0.91
							c0.1,0.183,0.033,0.412-0.15,0.512C264.034,205.634,263.972,205.648,263.911,205.648z"/>
						<path style="fill:#D1E4DF;" d="M259.881,199.661c-0.106,0-0.211-0.044-0.286-0.131c-0.109-0.126-0.218-0.249-0.328-0.371
							c-0.14-0.155-0.127-0.393,0.028-0.533c0.155-0.141,0.393-0.128,0.533,0.027c0.113,0.126,0.226,0.253,0.338,0.383
							c0.136,0.157,0.119,0.396-0.038,0.532C260.057,199.63,259.969,199.661,259.881,199.661z"/>
					</g>
					<g>
						<path style="fill:#D1E4DF;" d="M263.91,249.513c-0.203,0-0.372-0.162-0.378-0.367l-0.016-0.497
							c-0.007-0.208,0.156-0.382,0.364-0.39c0.239,0.015,0.383,0.156,0.391,0.365l0.016,0.501c0.006,0.208-0.158,0.382-0.367,0.388
							C263.917,249.513,263.913,249.513,263.91,249.513z"/>
						<path style="fill:#D1E4DF;" d="M263.63,243.268c-0.198,0-0.365-0.155-0.376-0.357l-0.053-0.934l0.753-0.067l0.054,0.96
							c0.011,0.208-0.148,0.386-0.356,0.397C263.645,243.268,263.638,243.268,263.63,243.268z M263.198,236.56
							c-0.196,0-0.361-0.151-0.376-0.349l-0.072-0.958c-0.016-0.207,0.14-0.389,0.348-0.405c0.206-0.007,0.389,0.14,0.405,0.348
							l0.072,0.958c0.015,0.208-0.141,0.389-0.349,0.405C263.217,236.56,263.207,236.56,263.198,236.56z M262.629,229.864
							c-0.192,0-0.356-0.146-0.375-0.341l-0.094-0.955c-0.021-0.207,0.131-0.392,0.338-0.413c0.206-0.018,0.393,0.13,0.413,0.338
							l0.094,0.956c0.02,0.207-0.132,0.392-0.34,0.412C262.653,229.863,262.641,229.864,262.629,229.864z M261.894,223.183
							c-0.188,0-0.35-0.14-0.374-0.33l-0.121-0.954c-0.026-0.206,0.12-0.396,0.326-0.423c0.209-0.028,0.396,0.119,0.423,0.326
							l0.121,0.955c0.026,0.207-0.121,0.396-0.328,0.422C261.926,223.182,261.91,223.183,261.894,223.183z M260.939,216.53
							c-0.181,0-0.341-0.131-0.372-0.315l-0.159-0.945c-0.035-0.205,0.103-0.401,0.309-0.436c0.203-0.025,0.4,0.103,0.436,0.309
							l0.16,0.949c0.034,0.205-0.105,0.4-0.311,0.434C260.98,216.528,260.959,216.53,260.939,216.53z M259.645,209.937
							c-0.171,0-0.326-0.117-0.367-0.292c-0.073-0.314-0.147-0.623-0.223-0.928c-0.051-0.202,0.073-0.408,0.275-0.458
							c0.202-0.042,0.407,0.074,0.457,0.275c0.077,0.309,0.152,0.622,0.226,0.94c0.047,0.202-0.079,0.406-0.282,0.453
							C259.703,209.934,259.674,209.937,259.645,209.937z"/>
						<path style="fill:#D1E4DF;" d="M257.728,203.517c-0.15,0-0.293-0.09-0.351-0.239c-0.061-0.155-0.122-0.307-0.184-0.456
							c-0.081-0.192,0.01-0.413,0.202-0.493c0.192-0.079,0.414,0.011,0.494,0.202c0.064,0.153,0.128,0.311,0.191,0.47
							c0.076,0.195-0.019,0.414-0.213,0.49C257.821,203.508,257.774,203.517,257.728,203.517z"/>
					</g>
				</g>
			</g>
		</g>
	</g>
</g>
</svg>
